<?xml version="1.0" encoding="utf-8"?>
<!-- Generator: Adobe Illustrator 19.1.0, SVG Export Plug-In . SVG Version: 6.00 Build 0)  -->
<svg version="1.2" baseProfile="tiny" id="Layer_2" xmlns="http://www.w3.org/2000/svg" xmlns:xlink="http://www.w3.org/1999/xlink"
	 x="0px" y="0px" width="900px" height="600px" viewBox="144 97 900 600" xml:space="preserve">
<g>
	<path d="M607.4,606.5c2.4,1.1,5,0.2,7.5,0.6c7.8,1,15.5,2,23.2,3.9c9.6,2.4,19.5,3.7,29.5,3.4c5-0.2,10.1,0.3,15.1,0.5
		c0.9,0,1.8,0.3,2.9-0.3c-2.1-1.6-4.6-2.3-6.8-4.4c2-0.5,3.6,0.2,4.9,1.1c5,3.3,10.7,3.3,16.3,2.9c2.4-0.2,4.3-2.1,6.9-2.1
		c8.3-0.1,16.6,0.8,24.9,1.1c1.5,0.1,2.7,0,4.2-0.6c2.6-1.1,5.8-0.9,8.7-0.3c8,1.8,15.2-0.2,22-4.6c0.8-0.6,2-0.7,3-1
		c2.9-0.8,5.5-1.9,8.1-4.1c-7.1-3.5-11.3-9.6-16.5-15.3c1.6-0.5,2.2,0.3,2.8,1c4.4,5.8,9.8,10.4,16.3,13.5c0.4,1.2-1.3,1.1-1.1,1.9
		c0,0.5,0.1,0.6,0.4,0.7c1.2,0.1,2.4,0,3.5,0.4c8.6,2.4,15.2-1.5,20.8-7.2c2-2,3.5-5,4.3-8c1.1-4.4,2-8.9,3.2-13.8
		c-3.8,1.6-7.2,3.5-11.2,2.2c3.5-1.3,7.5-1.5,10.7-4.3c-0.7-4,2.3-9-3.1-12.1c1.1-1.7,2,0.6,3.1-0.1c-2.1-5.3-5.4-9.7-9.5-13.5
		c-0.5-0.5-1.1-1-1.7-1.2c-6.2-1.9-12.3-4.7-18.9-5.2c-1.8-0.1-3.7,0.3-5.6,0.7c-5.2,1.1-10.2,2.7-15.1,4.7
		c-1.3,0.6-2.7,1.1-3.7,2.3c7-3,14.4-3.9,22.2-5.3c-0.5,2.4-2,2.4-3.1,2.6c-4.1,1-8.2,1.9-12.3,2.9c-2.6,0.7-4.8,1.8-6.4,4.3
		c-1.9,2.9-4.7,5.2-7.2,7.7c-1.1,1.2-2.6,2.1-2,4.5c-16.8-0.4-32.7,3.2-49.2,7c2.4,0.9,4.3,0.1,6.1,0.9c0.2,0.1,0.3,0.3,0.5,0.6
		c-0.5,0.9-1.3,0.7-2,0.7c-3.3,0-6.6,0-9.8-0.2c-8.8-0.4-17.5,1.2-26.2,2.1c-5.4,0.6-10.8,2.4-15.5,5.5c-5.9,3.8-12.6,5.1-19.2,6.4
		c-3.6,0.7-7.4-1-11.1-0.1c-2.6,0.6-5.3,0.8-8,1.2c-2,0.3-3.8,0.7-5.8-0.1c-1.8-0.7-3.7,0.2-5.5,0.7c-6.1,1.7-12.5,2-18.7,2.7
		c-8.2,0.8-16.3-0.2-24.5-0.6c-4.2-0.2-7.8,2.2-11.2,4.3c-1.8,1.1-3.4,2.6-5.4,3.1c-4.8,1.2-7.2,4.7-9.3,8.7
		c6.2-4.2,12.8-7.7,19.6-12c0,2.3-1.3,2.9-2.3,3.5c-7.3,4.5-14.2,9.6-21.1,14.6c-1.3,0.9-2.4,1.8-2.8,3.4c4,0.2,19.3-9,31.1-18.6
		c0.9,0.9,0.1,1.5-0.3,2.1c-0.9,1.4-2,2.6-3.4,3.5c-7.8,4.6-14.7,10.4-22.5,15c-1.4,0.8-2.1,3-4,2.8c-1.4-0.5-0.1-1.6-0.8-2.1
		c-4.9,1.2-6.4,3.7-4.3,8.1c1,2.1,1.1,3.9,0,5.9c-0.6,1-0.7,2.2-0.5,3.4c1.1,5.6,2.2,11.2,2.7,16.9c0,0.2,0.1,0.5,0.2,0.7
		c0.9,2.5,2.3,4.7,0.8,7.6c-2.3,4.4-4.8,8.2-9.5,10.8c-6.6,3.7-13.8,4.9-21,6.1c-1.3,0.2-2.5,0.6-3.6,1.2c-1.8,0.9-3.6,1.6-5.5,2.3
		c-4.4,1.7-9.1,2.3-13.5,4.5c-4.2,2.1-9.3,2.2-14.1,2.2c-9.3,0-18.7-1-27.3-4.4c-8.2-3.3-16.2-7.4-20.9-16.3c0.1,0.4,0,0.2,0,0
		c0.2-6.4,3.7-9.5,9.9-10.6c5.2-0.9,10-3.4,15-4.9c3.9-1.2,6-3.6,8.4-6.3c1.4-1.5,3.3-2.6,5-3.9c4.5-3.2,8.3-7.2,12.7-10.6
		c0.5-0.4,0.9-0.8,1.4-1.1c6.2-2.4,7.9-8,9.6-13.6c0.5-1.6,0.8-3.4,2-4.9c3-0.8,5.5,0.6,8.6,2.2c11.6-16.5,24.5-32.2,30.6-52.5
		c-6.1-4.8-10.9-11.1-16.8-16.2c-3.9-3.3-7.4-6.8-10.7-10.6c-1-1.1-1.8-2.2-3.3-3c-1.6-0.9-2.4-2.8-2.3-4.8
		c0.2-10,0.7-19.9,3.2-29.6c0.7-2.6,2.1-5.2,0.6-8.1c-1.4,0.4-1.4,1.4-1.7,2.2c-1.8,5.8-4.2,11.4-6.8,16.9
		c-3.6,7.9-9.7,13.7-15.6,19.7c-2.6,2.6-6,4.1-9.3,5.5c-1.7,0.7-3,1.7-4.2,3c-7.3,8.2-14.4,16.7-21.3,25.3c-2.7,3.4-5,7.1-7.3,10.7
		c-2.4,3.7-2.9,7.9-2.5,12.2c0.1,1,0,2.2,1.4,2.7c-1.7,3.4-1.2,6.4,1,9.5c1.5,2.1,2.3,4.7,1.6,7.4c-0.6,2.7-0.4,5.1,1.1,7.4
		c1.5,2.5,0.8,4.4-1,6.6c-3,3.6-6.9,4.8-11.2,4.8c-10.7,0.1-21.5,1-32.1-1.3c-3.1-0.7-6.1,1.2-9.1,1.9c-2.2,0.4-4.2,1.4-6.3,2.1
		c-1.9,0.6-3.8,1.3-5.7-0.1c-0.4-0.3-1.1-0.3-1.7-0.3c-10.5,0.8-20.8-0.8-31.1-2.2c-5.1-0.7-8.9-4.2-10-9.3
		c-0.3-1.6-1.5-2.9-1.7-4.6c-0.4-2.3,0.9-5.4,3.1-5.6c5.3-0.5,9.2-3.9,13.8-5.8c1.1-0.5,2.2-0.8,3.4-0.8c9.3,0,17.4-4.1,25.6-7.7
		c1-0.4,1.5-1.1,1.8-2c1.1-3.5,3.7-5.9,6.4-8.2c1.7-1.5,2.8-3.2,3.4-5.5c1.1-4.9,5.1-7.2,8.8-9.6c3,1,1,2.9,1.5,4.4
		c3.2-5.9,8.3-10.4,11.7-16.2c3.8-6.6,8.2-12.9,12.9-18.8c5.4-6.8,9.1-14.4,12.2-22.4c2.6-6.9,5.4-13.7,9.6-19.9
		c1.2-1.7,1.9-3.8,2.6-5.7c3.1-8.3,7.3-15.9,12.8-22.9c0.8-1,1.4-2.1,1.4-3.5c0-2.5,0.7-4.9,2-7c2.6-4.6,4.4-9.6,6.6-14.3
		c1.7-3.8,4.1-7.4,6.9-10.7c2.1-2.5,4.2-5.1,6.3-7.6c2.5-3,6.1-4.1,10-4.2c5.3,0,10.3,2.1,15.5,2.8c10.1,1.3,19.7,4.5,27.7,10.9
		c4.7,3.8,9.7,7.5,13.6,12.4c2.4,3.1,5.8,5.1,8.6,7.8c1.8,1.8,3.8,3.4,5.8,5.2c2.2-5.3,6.3-9.7,7.6-16c2-9.4,9.4-14.1,18.1-16.7
		c1.4-0.4,2.5,0.2,3.8,0.4c4.4,0.9,8.8,1.4,12.3,0.9c6.3,1.8,10.2,6.1,15.1,8.7c1.8,1,3.7,2.1,4.6,4.2c0.5,1.1,1.5,1.7,2.4,2.5
		c6.5,5.9,13.1,11.7,19.1,18.2c5.3,5.8,9.7,12.2,13.3,19.3c2.2,4.3,4,8.9,6.2,13.1c6,3.7,12.5,3.1,18.9,2.4c6.5-0.7,13-1.4,19.6-0.5
		c3.6,0.5,7.1-0.5,10.7-1.3c5.7-1.2,10.6-3.9,15.5-6.8c4.4-2.6,9.4-4.1,13.7-6.9c2.4-1.6,5.4-1.8,8.2-1.1c5.8,1.4,11.8,2.1,17,5.4
		c0.1,0.1,0.2,0.1,0.3,0.1c8.9,1.5,15.3,7.1,21.1,13.6c2.3-1.3,3.7-2.9,3-5.5c-0.3-1.1,0.1-2,0.9-2.9c1-1.1,2.1-2.2,1.5-4
		c-0.3-0.9,0.8-1.6,1.6-2.1c1.4-0.8,2.8-1.7,4-2.4c0.5-1.1,0.3-1.8,0-2.6c-1.5-3.4-0.7-5.5,2.8-6.9c3.4-1.4,6.8-3.1,9.9-5
		c0-1.3-1.5-1.4-1.4-1.9c0-1.2,0.8-1.2,0.9-1.4c1.2-5.8,5.6-8.7,10-11.8c2.3-1.6,4.6-3.1,7.1-4.8c-1.2-2.7-3.1-4.8-3.9-7.5
		c1.3-3.3,4.2-5.6,5.7-8.5c1.3-0.5,2.5-0.5,3.6-0.1c1.6,1.3,1.9,3.5,3.4,4.9c1.1-1.1-0.9-2.5,0.7-3.7c1.6-0.1,3.4,2.1,5-0.1
		c2.1,2.3,0.5,4.3,0.6,6.6c1.6-0.1,2.4-1.9,3.9-1.6c4.5,1.3,7.9,4.2,10.9,7.6c0.8-0.4,0.5-1,0.6-1.5c0.1-0.6,0.5-1,1.1-1.3
		c1.7,0.1,2.3,1.5,2.9,2.7c2,4.2,4.6,7.5,9.2,9.3c2.1,0.8,3.9,2.6,5,4.7c2.2,4.4,5.1,8.4,6.5,12.9c2.2,1.3,4-1,6.1-0.1
		c-0.5,1.9-1.4,3.4-3.4,4.6c3.1,1.2,6.7,0.5,8.1,3.8c-0.5,2.5-2.5,2.8-4.4,3.5c-1,6.6-3.4,12.8-7.8,18.1c-0.8,0.9-1.4,2-2.6,2.2
		c-3,0.7-4.7,2.7-6.3,5.2c-1,1.6-2.5,3-4.4,3.9c-0.6-1.4,0.8-1.7,0.9-2.6c-0.2,0-0.4-0.2-0.5-0.1c-0.6,0.4-1.4,0.8-1.6,1.3
		c-1.9,5.5-6.4,8.4-10.6,11.7c-1.7,1.3-3.1,3.2-4.5,4.9c-3.3,4-7,7.4-11.3,10.2c-1.3,0.8-2.5,1.7-2,3.6c0.4,1.6-0.5,3.1-1.5,4.1
		c-3,3.1-3.3,6.8-3.2,10.7c0.3,10.1-0.5,20.1-4.4,29.6c-1.5,3.6-3.1,7.2-3.2,11.3c0,1.3-1,2.4-1.9,3.3c-5,5.4-10.3,10.4-18.3,10.6
		c-0.4,0-0.9,0.1-1.3,0.4c-17.5,9.9-36.5,9.9-55.7,9c-4-0.2-8-0.6-11.9-0.1c-5,0.7-10.1-0.7-15.3,0.2c0.1,1.2,2,0.5,1.7,1.8
		c-5.4,0.5-11,2.4-16.4,0.5c-4-1.4-7.8-1-11.8-0.6c-2.4,0.2-4.7,0.4-6.8,2.2c-1.8,1.7-4.6,1.6-7,2c-4.5,0.6-8.9,1.1-13,2.1
		c-1-0.8,0.1-1.3-0.4-1.9c-0.2,0.1-0.5,0.1-0.6,0.2c-4.1,5.2-9.9,7.4-16.1,8.6c-7.8,1.5-15.6,3.7-23.6,2.9c-10.6-1-21.4,0-31.7-3.4
		c-3.1-1-6.3-2.1-9-3.9c-3.9-2.6-8.6-3.8-12.5-6.3c-0.8-0.5-1.6-0.6-2.4-0.3c-3.2,1.2-6.7,1.9-9.4,3.8c-2.5,1.7-5.1,2.2-7.7,3
		c-2.3,0.7-3.5-0.6-4-2.9c0.4-0.9,2.4-0.5,2.2-2.5c-1.7,0.9-3.3,2-5.1,2.6c-1.8,0.7-3.8,0.8-5.4-0.9c1.4-1.9,3.1-0.8,4.4-1.4
		c11.1-7.5,24.2-11.1,36-17.9c0.4,2.5-1.1,3.5-2.6,3.9c-4.1,1.1-7.3,3.7-10.8,5.8c-4.2,2.6-8,5.8-12.5,7.9c-0.9,0.4-1.8,1.1-2.2,2.5
		c4-1.3,8-1.8,11.4-4.5c3.3-2.5,7.7-2.4,11.6-3.8c3.3-1.2,6.9-1.3,10-3.2c1.6-1,3.5-0.5,5.2-0.2c5.6,1.2,11.2-0.2,16.8,0.1
		c2.7,0.1,5.2-1.3,7.5-2.8C603,610,605.2,608.1,607.4,606.5L607.4,606.5z"/>
	<path d="M741,164.4c0.3,0,0.6,0,1.5,0c-2.5,2.2-4.8,3.2-7.7,3.4c-0.1-1.7,1.4-0.8,1.7-1.6c-0.5-1.1-1-2.3-1.5-3.4
		c1.3-1.9,3.2-3.3,3.7-5.6c2.1-0.6,4.2-1.3,6.3-1.9c-3.2,0.2-6.3-0.3-9.4,0.1c-2.5,0.3-3.7,2.7-5,4.6c-0.6,0.9-0.7,2.3-2.4,2.6
		c-1.2-3.4,1.2-6.4,1.4-9.8c-2.5-2.5-2.3-5.9-2.2-9.1c0.1-1.6-0.1-2.9-1.1-4.2c-2.5-3.2-3.7-7-4.6-10.3c-0.2-1.7,1.4-1.2,1.4-2.3
		c-2.1-2.8-4.7-4.2-8.3-4.2c-3.3,0-6.6-0.5-8.9-3.5c-0.7,1.2,1.2,1.6,0.3,2.6c-1.4,0.9-2.5-0.5-4-0.8c-3.5,2.4-8.1,2.9-11.1,6.7
		c-2.8,3.5-5.6,6.8-7.3,11.4c1.9-0.2,3.1-2,5-1.8c-0.1,1.8-1.5,2.1-2.5,2.6c-4.3,2.2-5.2,4.7-3,9.3c0.7-1.7,0.7-1.7-0.3-3.1
		c1.6-3.2,4.3-4.5,7.8-4.5c0.7,2.8-1.4,4.1-2.8,5.8c-1.4,1.7-2.6,3.6-3.8,5.3c0.6,1.5,1.2,2.7,1.8,4.2c-2.5,0.5-2.7-1.4-3.5-2.9
		c-1.6,1.9-2,4-2,6.1c0.2,6-0.5,11.9-0.9,17.9c-0.3,5.1,1.8,7.9,6,9.9c2.2,1.1,4.5,1.9,6.2,4c0.1,1.8-1,2.9-2.2,4.3
		c-1.2-1.4-0.4-3-1-4.3c-1.6-1.9-3.9-2.9-6.3-3.3c-3.9-0.8-6.1-4-5-9.2c0.8-4,0.5-8.2,1-12.2c0.3-2,0.4-4.1,0-6.2
		c-0.3-1.6-0.3-3.5,0.4-4.8c2.6-5.2,1.9-10.8,2.7-16.2c0.6-3.7,2.9-6.6,4.8-10c-4.1-3-4.1-7.9-5.4-12.2c-0.7-2.3-1.1-4.9,1.7-6.5
		c1-0.6,0.8-1.8,0.7-2.9c-0.1-1.4,0-2.7,1.9-2.4c1.1,0.6,0.6,1.8,1.2,2.5c1,0.5,2,1,3.1,1.5c0.4-1.9-1.4-3.3-0.8-5.4
		c1.9,0.8,3.6,0.2,5.3-0.6c3.4-1.5,4.4,1.4,6.3,3.1c2.2-0.3,1.3-2.5,2-3.9c3.3,0.3,4.6,3.2,7.4,4.6c2-0.8,3.7,0.4,5.5,1.9
		c1.6,1.4,3.1,3.3,5.6,1.9c5.5,3.8,11,6.9,17.3,8.7c3.2,0.9,5.8,3.4,8.3,5.8c1.7,0,3.2-3.5,5.1-0.7c0.3,1.5-1.2,2.1-1.3,3.3
		c1.8,0.5,4.1-0.2,5.3,2.1c-1.3,3.1-4.4,1.9-6.7,2.7c-0.2,1.1,0.4,2.1,1,2.9c1.4,1.9,1.8,3.8,1.3,6.2c-0.5,2.7,0.7,5.5,0.6,8.4
		c-0.2,7.3-2.8,13.3-8.7,17.7c-0.5,0.4-1.2,0.7-0.8,2.2c0.9-0.9,1.5-1.5,2.6-2.7c1.4,5.6-4.2,9-3.3,14c1.6,0.8,3.4,0.4,5.1-0.5
		c2.6-1.4,5-1.6,8-0.7c7.2,2.1,14.4,4.5,22.1,4.4c2,0,3.8,0.8,5.6,1.9c4.8,2.9,9.4,6.1,13.8,9.5c1,0.8,1.5,1.8,2,2.8
		c2.7,5.6,2.6,11.5,1.9,17.6c-1.4,13.9-6.6,26.4-12.6,38.8c-6.6,13.5-17.3,22.4-30.6,28.8c-1.8,0.9-3.5,1.8-4.8,3.4
		c-1.8,2.2-4.1,3.9-6.4,5.4c-13.3,9.1-27.4,15.9-43.4,18.9c-9.5,1.8-19,2.7-28.4,4.5c-2.6,0.5-5,1.2-7.3,2.4
		c-3.5,1.8-7.2,3.3-11,4.7c-1.3,0.5-2.6,1-4,0.5c-0.3-0.7,0.2-1.2,0.3-1.7c0.1-0.3,0.2-0.6,0.2-1c-0.2,0.3-0.2,0.6-0.4,0.9
		c-6.5,7.6-15.8,8.7-24.9,10.7c-11.4,2.4-22.6,0.6-33.9,0.2c-9.9-0.3-18.7-3.7-27-8.8c-2.6-1.6-5.9-1.8-8.2-3.9
		c-4.9-4.6-10.6-8.5-14.5-14.2c-1.4-2.1-2.9-4.3-5.2-6.2c-1.4,1.8-2.9,3.5-4.1,5.4c-3.5,5.5-7.4,10.9-11.3,16.1
		c-1.3,1.7-1.2,3.3-0.4,4.9c1.3,2.4,1.7,4.7,0.1,7.2c-0.5,0.8-0.6,1.8-0.3,2.7c1.8,7,1.5,14.4,4.3,21.2c0.3,0.7,0.4,1.4,0.1,2.1
		c-2,5.2-4.2,10.2-9.8,12.7c-5.6,2.6-11,5.5-17.6,5.6c-2.8,0-5.9,0.9-8.7,2.5c-1.7,1-3.6,1.6-5.5,2.2c-4,1.4-8.2,2.1-12.2,4
		c-4.8,2.3-10.4,2.4-15.9,2.3c-8.6-0.2-17.2-1.1-25.2-4.2c-8.4-3.3-16.6-7.5-21.5-16.5c0.3-1.4,0.7-3.4,1.2-5.3
		c0.6-2.7,2.9-3.6,5.1-4.3c6.4-1.8,12.7-3.9,19-6.2c3.3-1.2,5.4-2.9,7.4-5.4c1.3-1.7,3.2-2.7,4.9-3.9c4.6-3.4,8.7-7.4,13.2-11
		c1.5-1.2,2.9-2.5,4.6-3.1c2.2-0.9,3.2-2.5,3.9-4.5c1.4-4.1,3-8.1,4.4-12c3.2-0.9,5.7,0.6,8.7,2.1c9.6-11.9,17.6-24.8,25.2-38.1
		c-5.1,0.3-9.9,1.2-14.5,2.5c-0.8,0.2-1.3,0.9-1.8,1.6c-2.7,4.1-6.4,7.1-10.9,9.1c-1.6,0.7-1.8,2.6-3,3.3c-5.8,3.3-8,9.5-11.6,14.5
		c-5.4-3.7-6.4-8.4-2.6-13.5c1.1-1.5,1-3.7,3.1-4.6c-0.8-1.5-2.6-1.9-2.5-3.5c0.1-0.1,0.2-0.1,0.3-0.2c0.9-0.1,1.6,0.3,2.2,0.8
		c1-0.3,0.8-1.6,1.7-1.6c0.6,0,0.8,0.3,0.9,0.7c0.3,3.6-1.5,6.7-3.5,9.3c-2.6,3.2-2.6,6-0.5,9.2c1.4-0.6,1.5-2.1,2.3-3
		c0.2-1-1-1.7-0.3-2.8c0.5,0.2,0.9,0.4,1.6,0.7c1.4-3.1,3.9-5,6.6-6.9c2.1-1.5,3.7-3.8,5.9-5.4c1.5-1.1,3.3-1.2,4.6-2.2
		c1.7-1.3,3.5-2.8,4.3-5c0.9-2.3,2.6-3.1,4.8-3.5c4.7-0.9,9.4-1.8,14.4-2.8c1.3-3.4,2.7-7,4-10.5c-0.7-1.5-2-2.2-3.1-3.1
		c-7.9,1.9-15.9,3.8-24,5.1c-4.8,0.8-9.2,3.3-13.9,4.9c-4,1.3-8.1,2.6-12.2,3.5c-7.2,1.6-14.1,4.3-20.9,7.1c-2,0.8-3.9,1.6-5.9,2.2
		c-2.4,0.7-4.6,1.5-6.5,3.3c-2.1,2.1-5.2,1.9-7.7,3.1c-3.7,1.8-4.6,3.7-2.4,7.1c2.3,3.6,3.5,7.3,2.4,11.6c-0.5,1.8,0.6,3.4,1.3,5
		c1.6,3.5,1.3,4-1.1,6.9c-2.8,3.3-6.4,4.6-10.5,4.7c-10.8,0.1-21.7,1.1-32.5-1.3c-3.2-0.7-6.1,1.3-9.2,1.8c-2.3,0.4-4.4,1.5-6.7,2.2
		c-1.8,0.5-3.6,1.2-5.4-0.1c-0.6-0.5-1.3-0.4-2-0.3c-4,0.5-8-0.1-11.9-0.1c-6.8,0.2-13.3-1.4-19.9-2.4c-4.7-0.7-8.6-3.6-9.2-9.2
		c-0.2-1.6-1.4-2.9-1.7-4.6c-0.3-2.3,1-5.3,3.2-5.5c5.1-0.4,8.8-3.7,13.2-5.5c1.1-0.4,2.1-1.1,3.3-1c9.3,0.1,17.4-3.9,25.6-7.5
		c1-0.4,1.9-0.9,2.2-2.1c1.1-3.6,3.8-6.2,6.5-8.5c1.8-1.5,2.7-3.3,3.3-5.6c1.2-4.8,5.1-7.2,8.9-9.4c2.8,1.2,0.9,3,1.3,4.5
		c3.3-6.1,8.6-10.7,12-16.7c3.9-6.8,8.7-13.1,13.4-19.3c6.2-8.3,10-17.7,13.5-27.2c1.8-5,4.3-9.6,7.4-13.9c1.3-1.8,2-4,2.7-6.1
		c3-8.2,7.3-15.7,12.6-22.6c1-1.3,1.6-2.5,1.6-4.1c0-2.3,0.7-4.4,1.8-6.4c2.6-4.7,4.4-9.8,6.7-14.7c1.8-3.9,4.2-7.7,7.1-10.9
		c2.1-2.3,3.9-4.7,5.8-7c2.6-3.1,6.2-4.4,10.2-4.4c5.3,0,10.3,2.2,15.5,2.8c10.2,1.2,19.8,4.5,27.6,10.9c4.6,3.8,9.7,7.3,13.4,12.1
		c0.4,0.6,0.9,1.1,1.4,1.6c4.1,4.1,9.1,7.3,12.9,12.4c2.6-6,6.6-10.6,7.9-16.8c2.1-9.4,9.4-14,18.2-16.7c1.4-0.4,2.5,0.2,3.8,0.5
		c4.3,0.9,8.5,1.3,12.6,0.9c6,1.6,9.9,6.3,15.1,8.9c1.7,0.9,3.4,2,4.3,4c0.5,1.1,1.6,1.7,2.4,2.5c6.4,5.8,13,11.5,18.8,18
		c5.4,5.9,9.7,12.5,13.6,19.5c3.2,5.9,5,12.5,9,18.4c1.9-2.4,4.5-2.1,7.1-2.2c3-0.2,6.1,0.4,9.1-0.3c1.7-0.4,3.5,0.3,5.1,0.9
		c5,1.7,10.1,2.9,15.4,3.4c4.1,0.3,7.8-0.6,11.3-2.7c10.4-6.2,21.7-9.8,33.7-11c2.2-0.2,4.4-0.4,7-0.7c-1.1-1.9-1-3.7-0.5-5.6
		c0.4-1.8,0.4-3.7-0.6-5.2c-1.8-1-3.7,1-5.4-0.5c-0.6-1.7,0.3-3.2,1-4.8c1.7,0.6,0.9,2.1,1.2,3c5.3,0.3,9-2.1,12.3-6
		c-1.2-2.2-4.6-1.9-5-4.7c-1.5,0.5-1.6,1.3-0.9,2.2C740.6,162,741.1,163.2,741,164.4L741,164.4z"/>
	<path d="M418.7,292.4c1.1,1.4,2.4,1.5,4,0.8c6.2-2.4,12.9-3,19.3-4.7c7.3-2,15.2-1.5,22.3-4.8c0.9-0.4,1.8-0.1,2.3,0.9
		c-0.3,1.7-2.4-0.5-2.6,1.3c-0.1,0.1-0.2,0.1-0.3,0.2c-1.8-0.2-3.6,0.5-5,1.2c-2.1,1.1-4.2,1.1-6.4,1.1c-0.7,0-1.5-0.1-2.1,0.2
		c-5.8,2.9-12.2,2.9-18.3,4.5c-2.9,0.8-5.9,1.5-8.8,2.3c-2.6,0.7-4.7-0.1-6.6-1.8C416.8,291.7,417.9,292.5,418.7,292.4L418.7,292.4z
		"/>
	<path d="M716.4,595.6c0-2.8,0-5.7,0-8.7c2.6,1,2.6,1,1.6,9.8c-6.9,5.8-14.4,6.1-19.8,0.6c1.6-1.2,3.3-0.7,4.9-0.2
		C707.6,598.8,711.9,597.8,716.4,595.6z"/>
	<path d="M743.6,597.5c1.5-0.6,2.7,0.3,3.3,1.2c3.4,4.9,8.7,4.8,13.7,5.6c1.5,0.2,3.1-0.2,4.3,1.2c-0.6,1.6-2,1.6-3.4,1.6
		c-3.9-0.1-7.6-0.8-11.3-2.1c-1.8-0.6-3.4-1.6-3.7-3.7C746.3,599.6,743.8,599.5,743.6,597.5z"/>
	<path d="M418.7,292.4c-0.7-1.7,0.4-2.3,1.7-2.8c7.2-2.8,14.3-5.7,21.7-8c1.3-0.4,2-1.2,2.7-2.1c0.8-1.1,1.7-1.5,3.7-0.8
		C439.3,285.5,428.8,288.6,418.7,292.4L418.7,292.4z"/>
	<path d="M679.7,607.6c-1.3,1.4-3,1.6-4.7,1.7c-2,0.1-4,0.1-6,0c-7.7-0.2-15.4-0.5-23-0.8c-1.7-0.1-3.2-0.4-4.3-1.8
		C654.4,607.5,667,608.3,679.7,607.6z"/>
	<path d="M724,604.2c-2.9,1-5.2,2.9-7.6,4.5c-2.6,1.7-5.9,1.8-8.9,1c-3.2-0.9-6.2-2.5-9.7-2.7c1.8-1,3.6-1.2,5.5-0.5
		c5.5,2.1,10.7,1.6,15.6-1.5C720.5,604.1,722.1,603.8,724,604.2z"/>
	<path d="M607.5,606.4c-0.9,0-1.9,0.3-2.3-0.9c0.2-1,1.1-1.1,1.8-1.5c0.9-0.5,2.3-0.7,2.7-1.5c2.1-4,5.4-2.5,8.4-2.2
		c1.9,0.2,3.7,0.2,5.6,0.3c1.3,0.1,2.9-0.2,4,1.9c-5.2-0.9-9.9,0.4-15-0.5C611.7,604.2,609.5,605.3,607.5,606.4L607.5,606.4z"/>
	<path d="M694.6,137.1c3.7-3.6,14.4-2,18.8,2.2c-0.7,0.7-1.6,0.4-2.2,0.1C705.8,137.2,700,138.4,694.6,137.1z"/>
	<path d="M714.6,177.2c0.7-1.6,1.9-1.8,3.1-2.1c1.1-0.2,2.3-0.5,3.5-0.5c2.9-0.2,4.6-1.6,5.5-4.4c0.8-2.5,2.3-4.8,3.8-7
		c0.5-0.7,0.8-1.7,2.4-1.5c-1.5,2.7-3.4,5-4.1,7.7c-1.5,5-4.8,7-9.6,7.3C717.7,176.7,716.3,177.2,714.6,177.2z"/>
	<path d="M697.2,167.5c-5.3,0.1-10.4-2.9-15.6-0.5c-0.7-2.2,0.5-3.3,2.1-3.2c3.6,0.3,7.3-0.3,10.7,1
		C695.6,165.3,696.7,165.6,697.2,167.5z"/>
	<path d="M714.8,143.7c-3.4,2-6.3-1.1-8.6,1.1c-1.7-0.3-3.1-2.3-5.1-0.5c-0.3-2.1,1-2.9,1.9-3.9C707,140.5,710.5,142.2,714.8,143.7z
		"/>
	<path d="M801.6,556.1c-6.5,0.1-13-0.4-19.5-0.8C788.6,553.7,795.1,554.6,801.6,556.1z"/>
	<path d="M693.5,154.9c0.3-0.3,0.6-0.7,0.9-1c0.1-0.1,0.4-0.1,0.6-0.1c1.1,1,1.2,2-0.2,2.8c-1.5,0.9-4.6,0-6.7-2
		C690.2,151.3,691.8,154.5,693.5,154.9z"/>
	<path d="M690.7,594.8c-4.4-0.3-9,0.1-13.2-1.7C682,593.3,686.5,592.4,690.7,594.8z"/>
	<path d="M683.5,169.3c2.9-1.8,5.9-0.3,8.9-1.1C691,171.6,686.6,172,683.5,169.3z"/>
	<path d="M681.8,182.5c3.6-2,7.2-1.4,10.9,0C689.1,182.6,685.4,182.3,681.8,182.5z"/>
	<path d="M508.8,270.2c-3.7,0.9-7,3.4-11.1,2.8C501.4,272.1,504.8,269.9,508.8,270.2z"/>
	<path d="M691.1,588.7c1.7,2.2,3.5,4.3,4.9,6.2C693.6,594.7,691.8,592.9,691.1,588.7z"/>
	<path d="M779.8,545.5c3.2-1.2,4-1,6.9,0.8C783.4,546.9,782.2,546.8,779.8,545.5z"/>
	<path d="M777.5,555.8c-2.6,1-5.3,1.1-8.3,2.4C771.3,555.9,773.4,555.3,777.5,555.8z"/>
	<path d="M777.4,577.2c2.6-0.7,4.4-0.6,6.3,0.3C781.7,578.5,779.9,578.2,777.4,577.2z"/>
	<path d="M495.4,273.5c-1.8,1.4-2.9,2.7-5.1,1.9C491.4,273.5,493,273.6,495.4,273.5z"/>
	<path d="M689.7,588.9c-2.3-0.5-3.6-1.2-4.8-2.4C687.6,586.3,687.6,586.3,689.7,588.9z"/>
	<path d="M773.9,575.9c-1.4,0.3-2.8,0.4-4.5-0.3C771.2,574.2,772.6,575.1,773.9,575.9z"/>
	<path d="M570.8,596.1c-1.6,0.7-2.6,0.8-3.9,0.3C568,595,569.1,595,570.8,596.1z"/>
	<path d="M709.9,575.3c2-0.3,2.7,0.6,3.9,1.5C711.9,577.1,710.9,576.8,709.9,575.3z"/>
	<path d="M468.1,283.1c1.2-1.2,2.1-0.5,3.4-0.3C470.3,283.9,469.4,284.2,468.1,283.1z"/>
	<path d="M731.4,595c1.3-1.5,2.1-1.6,3.1-0.5C733.7,595.4,732.8,595.1,731.4,595z"/>
	<path d="M558.5,595.9c1.1-1.3,1.7-0.4,2.4,0.3C560,596.8,559.3,596.9,558.5,595.9z"/>
	<path d="M761.5,573.9c1.2-0.7,2.4-1.1,3.8-0.3C764,574.6,762.7,574,761.5,573.9z"/>
	<path d="M579.9,596.1c-1.1,0.7-2,0.8-3,0.3C577.7,595.2,578.5,594.9,579.9,596.1z"/>
	<path d="M670.4,592.1c-1.2,0.4-2.3,0.4-4.3-0.1C668.2,591.6,669.3,591.6,670.4,592.1z"/>
	<path d="M452.7,277c-0.3,0.9-1,1-1.9,0.8c-0.5-0.9,0.3-0.9,0.7-1.1C451.9,276.5,452.4,276.4,452.7,277z"/>
	<path d="M758.5,583.1c-1.2-0.9-1.2-0.9-1.8-2.4c0.9-0.2,1.2,0.4,1.5,0.9C758.5,582,759,582.4,758.5,583.1z"/>
	<path d="M466.7,272.9c-0.9,1.2-1.8,1.1-2.8,1C464.5,272.4,465.5,272.5,466.7,272.9z"/>
	<path d="M741.7,596c-1.7,0.4-2.4,0-3.2-0.6C739.6,594.9,740.4,595,741.7,596z"/>
	<path d="M586.2,595.5c-1.2,0.5-2.1,0.8-3.1,0C584,594.8,584.8,594.6,586.2,595.5z"/>
	<path d="M724.7,597.3c0.5-1.3,1.1-1.7,2-1.4C726.9,597.4,726,597.2,724.7,597.3z"/>
	<path d="M697.5,191.5c0.7-0.7,1.4-0.9,2.1-0.8C699.5,192,698.7,191.7,697.5,191.5z"/>
	<path d="M793.8,576.7c-1.2,1.3-1.9,1-2.7,0.8C791.6,576.2,792.4,576.8,793.8,576.7z"/>
	<path d="M682.7,585.8c-0.8,0.3-1.2,0.2-1.5-0.2C681.7,584.5,682.2,585.1,682.7,585.8z"/>
	<path d="M672.4,584.3c0.2-0.6,0.5-1,1.2-0.7c0.2,0.1,0.3,0.7,0.2,0.8C673.3,584.8,672.8,584.7,672.4,584.3z"/>
	<path d="M629.4,604.8c0.6-0.5,1-0.5,1.4-0.1C630.6,605.5,630.2,605.4,629.4,604.8z"/>
	<path fill="#FFFFFF" d="M511.9,614.3c-3,4.3-6,8.6-9.3,13.3c-6.4-3.1-13.3-5-19.2-9.8c7.4-8,12.2-17.1,18.2-25.4
		c3.9-5.3,7.5-10.8,9.9-16.9c1.3-3.2,2.3-6.6,4.5-9.4c1.7-2.2,1.7-5,2.3-7.6c1.9-7.8,4-15.6,6.7-23.1c2.8-7.6,4.2-15.6,6.3-23.4
		c0.9-3.4,1.7-6.8,3-10.1c0.8-2.1,1.6-4.2,1.7-6.4c0.3-6.8,2.7-13,5.2-19.2c1-2.5,1.7-5.1,1.6-7.8c-0.2-5.4,1.7-10.2,5-14.3
		c2.8-3.5,3.9-7.7,5.6-11.6c0.5-1.1-0.5-1.4-0.8-2c5.1-12.8,20.4-15.8,29.9-11.8c-1.1,1.9-3.1,3-4.8,4.8c2.4,1.1,3.8-0.1,5.2-1.2
		c4-3.1,5.9-3.2,9.5,0.6c3.5,3.6,6.2,7.9,10.2,11.1c0.7,0.6,1.2,1.4,2.4,1.7c0-2-2.1-2.5-2.5-4.4c1.3,0.5,2,1.3,2.8,2.1
		c3.1,2.9,6,6,9.2,8.7c2.6,2.1,3.5,4.8,4,7.9c0.7,4.2,0,8.5,0.7,12.6c1.5,8.3-0.5,16.2-1.5,24.3c-0.1,0.9-0.4,1.8-0.8,3
		c-2.3-1.8-3.3-3.6-4-6.4c-1.4-6-5.4-10.6-10.9-14.7c0.1,1.7,0.9,2.3,1.4,3c3.1,4.4,6.4,8.6,8.1,13.9c0.8,2.5,2.7,4.9,5.4,6.9
		c-7.9,23.7-16.8,46.9-28,69.2c-0.3,0.9,0.7,0.3,1,0.9c-1.8,2.2-3.9,3.9-6.8,4.9c-1.1-2.1-2-3.9-1.1-6.3c0.7-1.8,0.1-3.7-0.5-5.5
		c-1.6-4.5-2.9-9.2-4-13.8c-0.4-1.5-0.2-2.6,0.7-3.9c3.7-5.5,6.2-11.5,7.8-17.9c0.8-3.5,2.2-6.8,2.8-10.4c0.2,0,0.5,0,0.7,0.1
		c0.2,2.2,0.3,4.4,0.5,6.6c0.9-5.7,1-11.4,0.8-17.1c-0.1-1.7,0-3.2,1-4.7c1.2-1.9,1.2-4.2,1.1-6.5c-0.1-2.7-0.3-5.3-0.4-8.5
		c1.6,1.5,0.3,3.3,2.2,5c0.4-3.4,0.6-6.3-0.3-9.1c-0.9-2.8-3.1-5.1-2.4-8.8c-2,1.1-0.9,2.6-1.7,3.3c-0.4,0-0.7-0.6-1.3,0
		c0.8,2.8,0.9,5.9,0.9,9c-2.4,0.5-3,2.1-2,4c1.2,2.4,1.1,4.7,0.8,7.2c-0.5,4-0.7,8-1.5,11.9c-1.7,7.8-3.4,15.5-5.6,23.1
		c-2.2,7.7-7.1,14.1-12.5,19.7c-8.6,8.8-16,18.4-22.7,28.6c-8,12.1-16,24.2-24,36.4c-1.9,2.9-4.9,5-6.2,8.2
		c-3.8,0.3-7.4,1.2-11.3,0.3C507.6,623.6,510.9,619.6,511.9,614.3z"/>
	<path fill="#FFFFFF" d="M761,504.3c0-0.9,0.6-1.2,1.4-1.1c2,0.3,3.9,0.1,6.1-0.9c0.8,4.7,3.5,6.7,7.9,6.7c1.2,0,2.4,0.8,3.3,1.8
		c-1.4,2.8-4.4,4.1-6.2,6.6c3.7-2.3,8.6-2.8,10.3-7.9c-3.5-1.5-6.9-3.1-10.3-4.5c-3.3-1.4-4-5-1.3-7.6c3.6-3.4,3.6-3.4,2.9-7.8
		c0.4-1.1,1.4-1.5,2.4-1.6c2.8,0.8,3.7,4.3,7.3,4.7c-0.3-4.8-5.4-5.3-6.9-8.8c2-2.2,4.8-3.6,6.3-6.6c1.4,1,1.6,3.8,3.9,2.2
		c0.4-3.9-4.2-3.4-5.4-5.8c0.6-2.2,2.4-2.8,4-3.4c2.6-1,5.1-2.3,7.5-3.8c3-1.8,3.4-4,1.4-6.8c4.5-5.5,10.3-9.3,15.9-13.4
		c1.5,0.6,1.9,1.8,2.2,3.4c1.6-1.3,2.5,1,4.2,0.8c-2.9-5.3-7.3-9.7-6.2-16.2c1.6,8.1,6.6,14.5,11.1,21.3c-0.9,0.8-1.5-1-2.3-0.3
		c0.7,3.7,1,4.1,5.8,7.3c-2.1,5.9,1,11.6,1,17.5c0,4.3,0.4,8.7-0.8,12.9c-1.1,3.9-2.8,7.6-8.4,6.9c1.1,2.4,3.3,1.5,4.3,2.4
		c0.6,1.4-1.4,1.7-0.8,3.1c4,0.4,6.8-3.1,10.7-3.8c2.2,0.9,4.9,1,7.3,2.4c-1.7,2.5-4.5,0-6.7,1.9c-0.7,2.1-1.4,4.7-4.5,5.2
		c3.1-0.4,3.7-3.1,4.6-5.5c1.7-0.5,3.4-1.1,4.7,0.2c1.5,1.5,0.1,3-0.4,4.3c-1,0.9-2.2,0.5-3,1.1c1.9-0.9,2.8-0.1,3.3,1.3
		c-0.4-2.8,1-5.6,1.8-8.6c0.8,0.1,1.6,0,2.4,0.7c0.3,2.9-1.6,5.8,0.2,8.5c-2.9,3.7-6.6,5.2-11.2,4.4c-2-0.4-3.8,1-5.9,0.5
		c-1.9-0.4-3.9-0.8-5.5-1.9c-0.9,0.2-1.1,0.9-1.5,1.6c2.2,2.6,5.4,2.3,8.5,2.8c-2.4,2.5-3,5.4-3.4,8.2c-0.2,1.5-0.6,2.7-1.5,3.6
		c-5.8,6-6.8,13.5-7.4,21.3c-0.3,4.1-0.5,8.2-0.8,12.9c-1.4-16.4-13.4-25.6-25.5-28.1c-13.3-2.7-24.9,1.3-35.9,8.3
		c-4.3,2.8-8.8,5.3-12.6,8.7c-3.9-1.3-7.2-3.2-9.7-6.4c0.7,3,1.2,6,4.2,7.6c1.5,0.8,1.5,2.2,0.6,3.6c-0.6,0.9-1.2,1.7-1.9,2.7
		c-2.9-0.5-5.9,1.8-8.8,0c-2.4-1.5-4.8-3.1-7.6-4.2c1.4,1.8,2.7,3.6,4.1,5.4c-6,2.3-11.1,1.4-14.8-4.6c-1.2,4,2.9,4.2,4.1,6.7
		c-3.2,0.6-6.2,3-9.4,0.1c-0.7,0.9,0.6,1.1,0.4,2.1c-4.1,2-7.9,5.5-13.5,3.3c-0.4-1.9,0.3-4.3-1.1-6.9c-0.2,2.6,0.7,4.6-0.2,6.8
		c-2.9,0.3-6,0.7-9.3,1.1c-0.2-2.8,1.8-4.4,2.2-7.3c1.2,2,2,3.3,2.8,4.6c1.3-0.2,1.4-0.9,0.9-1.8c-1.7-2.9-2.6-5.9-3.3-9.2
		c-0.6-3-2.9-5-5.1-7c-4.8-4.6-7.3-10.4-9.1-16.7c6.7-3,12.5-1.8,17.8,2.9c1.4,1.5,3.3,1.4,5.1,1.7c-1.8-0.3-3.7-0.3-5.1-1.6
		c-0.1-3-3-3.9-4.7-5.9c2.5-1.8,5.5-2.5,8.6-4c-3.8-0.7-7,0.2-11,3c-3.8-0.9-7.7-0.1-11.8,0.8c-1.9-3.9-1.1-8.5-3.7-11.8
		c0.7-1.3,1.8-1.1,2.6-1.2c12.1-1.1,22.7-6.1,32.4-13.1c2.9-2.1,5.8-4.3,8.7-6.5c2.1-1.6,4.6-1.7,7-1.9c9.5-0.8,18.9,0.4,28.4,1.5
		c9.9,1.1,19.8,0,29.7-1.8c0.4,0.8-0.3,1.5-0.6,2.3c-2.2,0.3-4.4,0.3-6.6,0.2c-6-0.3-11.1,4.6-10.9,12.1c-7.6,0.3-15.1,1.6-22.8,3.7
		c1.3,1.2,2.3,0.5,3.2,0.3c4.8-0.9,9.7-1.6,14.5-2.5c4-0.8,6.9,0.5,9.5,2.9c5.7,5.2,12.7,7.9,19.6,10.7c8.6,3.6,16.9,7.5,24.4,13
		c1.6,1.2,3.6,1.3,5.2,2.7c4.2,3.7,7.3,7.9,7.4,14c1.5-1.9,1.8-3.3,0.9-5.6c-2.3-5.5-5.3-10.2-11.4-12.6c-4.3-1.7-7.9-5-11.6-7.9
		c-3.5-2.8-7.2-5.2-11.1-7.4c-1.1-0.7-2.3-1.7-4.5-1c3.4,2,6.3,3.8,9.2,5.5c-0.1,0.2-0.2,0.3-0.2,0.5c-4.7-2.1-9.4-4.1-14.1-6.3
		c-4.6-2.2-9.2-4.5-13.7-7.4c1.8-0.8,3.6,0.3,5.4-0.6c-2.1-1.5-4.4-0.5-6.5-1.1c-1.2-3.2,0.4-7.9,3.3-9.4
		C758.9,503.4,760,503.6,761,504.3c0.3,0.9,0.2,2,0.6,3C761.2,506.3,761.4,505.2,761,504.3z"/>
	<path fill="#FFFFFF" d="M453.6,438.2c0.3-2.1,1.4-3.6,3-5c3.3-2.8,6.1-6.1,8.1-10c0.9-1.8,2.2-2.6,4.1-2.8c6-0.8,11.6,0.8,17.2,2.7
		c3.5,1.2,7.1,2.1,10.8,2.7c4.8,0.7,9.4,2.8,13.5,5.6c0.8,0.5,1.3,1.2,1.6,2.2c0.8,2.9,2,5.8,2.3,8.8c0.3,2.7-0.2,5.5-0.4,8.3
		c-0.7,13.5-3.1,26.7-6.5,39.8c-1.1,4.4-2.9,8.4-5.6,12c-2.3,3.1-4.5,6.3-6.9,9.8c-2.9-7-5.1-13.8-7.1-20.8
		c-2-7.3-1.4-14.6-1.9-22.2c2.8,4,5.6,8,8.4,12c0.2-0.1,0.4-0.3,0.7-0.4c-1.9-6.7-6-12.2-11.3-16.5c0.1,7.2-0.4,14.8-2.1,22.3
		c-1.5,6.6-4.7,12.5-7.7,18.4c-3.1,6.2-6.4,12.2-10.7,17.7c-2.6,3.4-5.9,6-9.7,7.9c-6.6,3.3-12,8-16.8,13.6
		c-4.5,5.4-8.6,11.2-13.5,16.2c-5.3,5.4-9.6,11.5-13.3,18.1c-0.8,1.4-2.7,2-2.3,4.1c-7.7,0.3-14.6-1.8-21.9-3.6
		c1.5-2.3,3.1-4.2,4.5-7.2c-3.4,1.6-5.1,4.4-7.8,6.1c-2.1-0.8-4.1-1.6-6.3-2.5c1.6-3.9,4.3-6.8,7-9.7c5.2-5.4,9.7-11.4,13.9-17.7
		c2.4-3.7,5.3-7.1,7.8-10.8c6.1-8.8,9.6-19,14.2-28.5c2.5-5.2,5-10.4,7.4-15.6c3.8-8.4,7-17.1,12.7-24.6c2.4-3.1,5.1-6.1,4.2-10.6
		c-0.1-0.4,0.5-1,0.9-1.5c3.6-4.7,6-10,7.1-15.9C451.5,439.5,451.8,438.2,453.6,438.2c0.5,1.9-0.9,3.7-0.3,6.3
		C452.6,441.9,454.1,440.1,453.6,438.2z"/>
	<path fill="#FFFFFF" d="M629.3,571.3c-3,2.7-4.7,6.4-7.2,9.4c-0.9,1.1-1.2,3-3.4,2.9c-1.2-0.1-0.3,2-1.4,2.8
		c-12.2,0.5-24.2,2.8-36.3,3.6c-3.6-5.5-10.2-8.9-10.1-16.9c1.9,2.6,4.2,4.5,6.6,6.4c1.3,1,2.6,1.2,4.3,0.7
		c8.2-2.9,13.3-9.1,15.4-17c1-3.7,2.4-6.9,4.1-10c5.9-11.1,11.4-22.3,15.5-34.2c0.1-0.4,0.2-0.9,1-1.3c2.3,4.3,3.9,9.1,7.2,12.9
		c-2.1-5.3-3.9-10.8-6.7-16c4.1-12.5,5.6-25.5,5.6-38.6c0-3-0.4-5.7-1.9-8.4c-1.5-2.7-0.7-6-1.6-9c1.3-0.2,1.7,0.9,2.2,1.4
		c4.7,4.9,8.7,10.4,12.8,15.8c0.5,0.6,0.9,1.4,1.2,2.1c4.4,11.5,10.1,22.4,15.5,33.5c3.3,6.9,6.9,13.7,8.5,21.4
		c1.8,8.5,5.2,16.6,11.8,22.7c4,3.6,4.3,7.8,1.6,12.3c-1.1,1.9-2.3,3.8-2.8,6.2c-3.8-1.5-6.7,1.4-10.2,1.8c0.2-4.8,2.5-8.2,6.8-10.4
		c2.1-1.1,4.6-1.8,6.4-4.6c-3.8-1-6.4,1.1-9.1,2.3c-5.6,2.6-8.5,6.9-7.3,13.7c-5.4,0.9-9.4,4.7-14.6,6.2c-1.5-2.4-1.8-5.3-2.9-7.6
		c6-9.4,11.8-18.7,15.1-29.2c-5,9.1-9.5,18.4-15.6,27.4c-0.8-2.9-2.7-5-1.4-7.8c0.2-0.4-0.2-1.1-0.4-1.6c-3.2-5.6-4.5-11.8-6.2-17.9
		c-0.4-1.4-0.6-3-2.6-4c1.2,5.8,2.6,11.1,4.7,16.2c1.3,3.1,3.1,5.9,3.1,9.7c0,4,2,7.9,3.4,11.8c0.3,1,0.7,2,1.1,3.3
		c-6.6,2.1-13.4,2.2-20.5,3.1C624.2,581.3,627.8,576.8,629.3,571.3c0.1-0.2,0.2-0.3,0.3-0.5C629.5,570.9,629.4,571.1,629.3,571.3z"
		/>
	<path fill="#FFFFFF" d="M447.2,654.9c2.2,2.4,5,3.9,7.8,5.3c1.8,0.9,1.9,0.8,3.1-1.3c2.2,0.3,3.9,3.3,6.5,1.6
		c-0.3-3.7-6.4-8.5-16.1-12.9c0.7-1.1,1.7-1.8,2.8-2.4c5.9,4.4,12.9,7.1,18.2,12.4c2.5-1.5,1.3-3.1,0.4-4.3c-3-3.9-6.8-6.7-11.2-8.8
		c-1.4-0.7-2.8-1.1-4.2-1.7c0.3-0.9,1-1.4,1.8-1.8c5.9,3.5,11.7,7.1,15.6,13.1c2.9-2.6,2.9-2.7-2.6-10.4c3.4,1.6,5.9,3.8,8.6,5.9
		c2.6-1.5,1.4-3.2,0.3-4.6c-2.6-3.1-5.8-5.4-9.6-6.9c-1.8-0.7-3.7-1.4-5.7-2.1c0.2-1.1,1.1-1.4,2-2c5.9,3.5,11.9,7.1,16.6,12.4
		c2.6-1.8,1.6-3.4,0.6-4.7c-2.7-3.6-6.3-6.2-10.1-8.6c-0.9-0.6-1.9-1.2-2.5-2.1c7.1,2.6,12.5,7.9,18.2,12.8c1.9-2.5,0.6-3.7-0.3-4.8
		c-4.2-5.3-9.1-9.8-16.3-11.2c0.9-4.3,4.6-6.9,5.2-11.6c6,3,10.6,6.8,13,12.7c0.6,1.5,1.4,2.6,2.4,3.7c3.4,3.6,6.4,7.6,11.1,9.6
		c0.5,0.2,1,0.5,1.6,0.8c5.4,2.3,8.1,1.3,10.9-3.9c1.9-3.6,2-7.6,3.3-11.5c1.3,2.7,1.5,5.1,0.2,7.8c-0.6,1.3-0.4,2.7-0.1,4.1
		c1.3,5.3,2.6,10.7,3,16.2c0,0.3,0.1,0.7,0.2,1c0.5,1.7,1.8,3.2,0.9,5.3c-1.5,3.2-2.6,6.5-5.9,8.5c-5.6,3.5-11.2,6.7-18.2,6.4
		c-2.9-0.1-6.1,0.9-8.7,2.5c-4.1,2.6-8.7,3.3-13.3,4.2c-1.5,0.3-3,0.5-4.1,1.8c-0.7,0.8-1.8,1-2.9,1.1c-17.4,3.2-33.8,0.1-49.4-7.7
		c-2.4-1.2-3.4-3.8-5.1-5.7c-1.3-1.3-2.4-2.9-3.7-4.4c0.6-1.4,1.1-2.8,1.6-4.1c9.1-4.5,20.3-2.8,28.2-10.5c1.9,0.9,2.7,3.2,4.8,3.3
		C447.5,657,446.9,655.7,447.2,654.9L447.2,654.9z"/>
	<path fill="#FFFFFF" d="M362.6,588.9c1.2,1.1,1.5,3.3,4,3.1c1.6-3.1-1.5-5.7-1-8.9c2.5-1.5,3.4-4.2,3.8-6.9
		c0.4-2.6,2.8-2.8,4.6-4.8c-1.2,4.1-2,7.4-2.2,10.9c-0.1,2.1,0.5,3.6,2.5,4.5c2.4,1.2,4.5,2.8,6.5,4.8c6,5.9,12.6,6.1,19.1,0.8
		c3.5-2.9,7.1-5.7,11.1-8.5c0.3,2.1,0.5,3.9,0.7,5.7c0.5,3.8,1.1,7.6,3,11.1c1.2,2.2,1.6,4.6,0.8,7.1c-1,3.3,1,6.1,2,8.8
		c-2.4,4.9-6.2,6.8-11.2,6.5c-8.5-0.5-17.2,1.4-25.6-0.8c-7.1-1.9-13.3-0.2-19.7,2.1c-1.5,0.5-2.8,0.8-4.4,0.6
		c-2.3-0.3-4.7-0.4-7-0.3c-8.2,0.5-16.3-0.1-24.4-1.8c-1.1-0.2-2.3-0.3-3.5-0.5c-4.8-0.7-7.6-3.3-8.7-8c-0.2-0.7-0.3-1.4-0.5-2
		c-1.1-4.3-1-4.5,3.2-5.3c4-0.8,7.7-2.2,11-4.4c2.6-1.7,5-2.4,7.5-0.1c0.6-0.5,1-0.9,1.4-1.3c1.1-0.2,0.5,1.2,1.5,1.3
		c1.4,0.3,0.9-1.6,1.8-1.9c1.5-0.2,1,1.9,2.4,1.8c1.2-1.2,1.2-3.7,3.8-3.8c1,0.5,1,2.3,2.6,2.3c1.6-0.4-0.1-2.8,1.9-3
		c1.4,0.1,1.8,2.4,3.6,2c0.7-1.8,0.7-1.8,0.1-4.2c1.6,0.7,2.1,2.8,4.2,2.6c2.5-1,0-3.1,0.5-5c2,0.9,2.3,4.1,5.2,3.1
		C365.5,593.9,362.3,591.4,362.6,588.9L362.6,588.9z"/>
	<path fill="#FFFFFF" d="M538,477.7c-1.1-0.7-0.4-2-1.2-2.4c-0.5,9.5-2.9,18.6-5.5,27.6c-1.4,4.8-2.6,9.7-3.7,14.6
		c-2.8,11.7-8.4,22.6-10.4,34.6c-0.5,2.8-1.7,5.3-3.3,8.2c-10-9.1-19.2-18.7-28.3-28.2c6.4-10.1,12.2-20.2,19.1-29.7
		c6.4-8.7,8.8-19,11.2-29.2c0.2-0.8,0-1.7,0.9-2.4c1.6,0.5,2.7,2,5,2.3c-1.4-2.2-3.3-2.9-5.1-4.1c0.4-11.1,2.6-22.3-2-33.2
		c10.2,7,18.4,15.8,27.5,24.2C539.8,465.7,541.6,472.2,538,477.7z"/>
	<path fill="#FFFFFF" d="M649.7,496c7.3,1.1,14.5,0.3,21.7-0.7c3.6-0.5,7.3-0.6,10.9-0.1c7.2,1.1,13.9-1.3,20.8-2.4
		c1.2-0.2,2.2-0.9,3.1-1.6c4.2-3.6,9-5.9,14-7.9c2.1-0.8,4.3-1.5,6.1-3.3c1.3-1.4,3.5-1.2,5.4-0.8c5.8,1.5,11.8,2.1,17,5.4
		c0.5,0.3,1.1,0.6,1.6,0.7c6.9,1.1,12,5,16.7,10.4c-1.7,0.2-3.2,0.3-4.8,0.4c-10.1,0.7-20.1,1.1-30.1-0.7c-6.1-1.1-12.4-0.8-19.4-1
		c7.4-3.7,14.8-4.9,21.9-7.3c-0.7-1.6-1.7-1.4-2.6-1.2c-11.2,2.9-22.9,4.7-31.9,12.8c-2.9,2.7-5.8,5.3-9,7.7
		c-2.4,1.7-4.9,3.3-7.6,4.3c-7.8,3-15.8,5.6-24.4,7.1c-3.1-6.3-6.1-12.5-9.3-18.6C649,498,650.5,497.1,649.7,496L649.7,496z"/>
	<path fill="#FFFFFF" d="M571,617.7c1.2-1.4,2.9-0.8,4.2-0.6c6,1.1,12,0.4,17.9-0.3s11.2-3.8,15.5-7.9c15.6,1.3,30.9,4.1,46.1,8.2
		c0.1,1,0.2,2.1,0.3,3.5c-2.1,0.6-4.3,1-6.5,1c-1.9,0-3.4,0.3-4.5,2c-1.6,2.4-4,3.8-6.8,4.6c-9.9,3.1-20,3.9-30.2,3.3
		c-5.3-0.3-10.5-0.5-15.8-0.7c-4.9-0.1-9.4-1.6-13.9-2.9c-1.4-2.8-2.8-5.4-4.1-8C572.7,619.1,572.3,617.9,571,617.7L571,617.7z"/>
	<path fill="#FFFFFF" d="M565,585.8c-1.8,0.9-3,2.5-4.2,4.3c-2.7-0.7-5.2-0.8-7,1.7c-0.1,0.2-0.4,0.4-0.6,0.4
		c-4.6,0.7-8.2,3.9-12.5,5.6c2.9-7.5,22.8-34.7,29.1-39.7c-2.6,4.4-2,8.4-0.8,12.4c-2.4,4.4-0.5,8.4,1.6,12.3
		c1.5,2.7,3.6,5.2,5.6,8.1c-4.7,0.1-9-0.2-13.5-0.8c-0.1-2,2-2.4,2.7-3.8C565.6,585.8,565.6,585.5,565,585.8z"/>
	<path fill="#FFFFFF" d="M403.6,585.8c-3.1,2.7-6.2,5.6-10,6.9c-4.1,1.4-8.2-0.4-11.4-2.9c-2.5-2-4.8-4.3-7.9-5.9
		c1.9-1.7,0.8-3.9,1.7-6C384.5,582.4,393.6,585.2,403.6,585.8z"/>
	<path fill="#FFFFFF" d="M490.3,625.2c7.8,3.6,15.1,8.5,24.6,5.5c-0.4,2.6-1,4.6-1.9,6.5c-1.9,4.5-2.7,4.9-7.5,3.4
		C497.8,638.2,493.3,632.5,490.3,625.2z"/>
	<path fill="#FFFFFF" d="M485.8,500.1c1.8,5.9,3.6,11.1,7,15.6c-3.8,4.8-5.4,10.7-10.5,15.1C484.7,520.4,481.7,510.3,485.8,500.1z"
		/>
	<path fill="#FFFFFF" d="M578.9,577c-1.9-1.4-3.6-2.7-5.4-4c-1.1-0.8-1.8-1.8-1.9-3.2c-0.5-4.2-0.2-8.4,0.3-12.6
		c0.2-1.3,0.7-2.5,2.2-3.2C575.4,561.7,577,569.4,578.9,577z"/>
	<path fill="#FFFFFF" d="M783.6,608.4c-7,3.2-14.2,5.2-21.9,5.5c5-2.8,9.6-6.1,15.4-8C778.8,607.5,781.2,607.6,783.6,608.4z"/>
	<path fill="#FFFFFF" d="M570.9,617.6c0.4,3.4,2.9,5.9,4.2,9.7c-3.7-3.5-9.2-2.9-11.8-7.6C565.8,618.9,568.3,617.9,570.9,617.6
		L570.9,617.6z"/>
	<path fill="#FFFFFF" d="M743.9,557.5c3.8-2.5,7.3-4.8,10.9-7.2c-1.3,3.8-4.8,5.7-6.9,9C746.6,558.6,745.5,558.1,743.9,557.5z"/>
	<path fill="#FFFFFF" d="M661.9,620.5c-0.5-2-2.1-2-3.7-2.3c4.2-1.4,8.5-0.2,12.8-0.6C668,618.3,665.4,619.9,661.9,620.5z"/>
	<path fill="#FFFFFF" d="M830.5,439.9c1,0.8,1.7,1.4,2,2.8c-2.4-1.5-4.3-1.2-6.1,0.8c-1.7-1.4-1.9-2.6,0.1-4
		C827.4,442.5,828.9,441,830.5,439.9z"/>
	<path fill="#FFFFFF" d="M867.6,476.7c1.9,0.2,3.5,0.5,5.1,1.3C870.3,479.7,869.6,479.6,867.6,476.7z"/>
	<path fill="#FFFFFF" d="M862,478.3c-0.3,0.9-0.6,1.7-0.9,2.7c-1.3-0.6-2.5-1.1-3.9-1.7c1.3-1.6,3.3-0.3,4.3-1.9
		C861.7,477.7,861.8,478,862,478.3z"/>
	<path fill="#FFFFFF" d="M850.1,475c1-0.7,1.7-1,2.8-0.9c-0.2,1.2,0.5,2.7-1.3,3.2C850.3,477,850.4,476,850.1,475z"/>
	<path fill="#FFFFFF" d="M444.4,651.5c-0.2-1.1,0.5-1.7,1.6-2.3c0.9,1,1.8,2.1,2.8,3.3C446.9,653,445.9,651.1,444.4,651.5
		L444.4,651.5z"/>
	<path fill="#FFFFFF" d="M829.6,469.7c1.2,1.8,2.1,3.7,1.4,6.4C829.6,473.9,829.6,471.8,829.6,469.7z"/>
	<path fill="#FFFFFF" d="M843.7,466.5c-3.4,0.7-3.8,0.6-4.5-1.4c1-0.5,1.7,0.6,2.6,0.5C842.5,465.7,843.5,465.3,843.7,466.5z"/>
	<path fill="#FFFFFF" d="M828.9,456.9c-2-1-3.2-2.9-4.3-4.8C827.1,452.7,827.8,454.9,828.9,456.9z"/>
	<path fill="#FFFFFF" d="M850.5,496.2c1.8-0.3,3.2,1.2,5,0.2C853.8,497,852,497.9,850.5,496.2z"/>
	<path fill="#FFFFFF" d="M737.1,563.3c2.2-2,3.7-0.3,5.2-0.1C740.8,563.6,739.2,563.6,737.1,563.3z"/>
	<path fill="#FFFFFF" d="M831,466c-1.1-1.3-1.2-2.7-0.9-4.5C831.5,463,831.1,464.5,831,466z"/>
	<path fill="#FFFFFF" d="M447.3,654.8c-1.7,0-2.7-1.5-4.2-1.8c0-1.1,0.5-1.4,1.3-1.5l-0.1-0.1C444.5,653.2,446.4,653.5,447.3,654.8
		L447.3,654.8z"/>
	<path fill="#FFFFFF" d="M832.4,462.2c1.3-1.6,2.6-1,3.7-1.2C834.9,461.2,834.2,462.5,832.4,462.2z"/>
	<path fill="#FFFFFF" d="M834.4,520.6c-1,0.6-1.8,1.5-3.3,0.9C832,520,833.2,520.3,834.4,520.6z"/>
	<path fill="#FFFFFF" d="M823.2,434.8c-0.6-0.6-0.9-1.2-0.4-2c0.8-0.2,1.1,0.1,1.1,0.8C823.9,434.1,823.7,434.6,823.2,434.8z"/>
	<path fill="#FFFFFF" d="M843.5,502.3c-1,0.9-1.7,0.7-2.4-0.1C841.8,500.9,842.5,501.2,843.5,502.3z"/>
	<path fill="#FFFFFF" d="M842.1,447c0.7,0.1,1.2,0.4,1.3,1.2C842,448.5,842,448.5,842.1,447z"/>
	<path fill="#FFFFFF" d="M830.1,481.4c1,0.9,1.2,1.5,0.3,2.3C829.7,483.1,829.9,482.4,830.1,481.4z"/>
	<path fill="#FFFFFF" d="M833.3,501.1c1-0.9,1.4-0.3,2.1-0.2C834.6,501.5,834.1,501.3,833.3,501.1z"/>
	<path fill="#FFFFFF" d="M837.6,481.9c0.8,0.7,0.7,1.2-0.2,1.8C836.9,483,836.8,482.5,837.6,481.9z"/>
	<path fill="#FFFFFF" d="M825.2,457.3c0.8-0.3,0.9,0.3,1.2,0.8C825.5,458.6,825.4,457.9,825.2,457.3z"/>
	<path fill="#FFFFFF" d="M839.5,488.8c-0.6-0.4-0.6-0.9-0.1-1.4c0.1-0.1,0.7,0.1,0.8,0.2C840.6,488.4,840.2,488.8,839.5,488.8z"/>
	<path fill="#FFFFFF" d="M833.4,444.3c1,0.2,1.4,0.5,1,1.2C833.7,445.7,833.6,445.2,833.4,444.3z"/>
	<path fill="#FFFFFF" d="M362.7,588.8c-0.9-0.7-0.9-0.7-0.6-1.7C362.8,587.5,362.6,588.2,362.7,588.8L362.7,588.8z"/>
	<path fill="#FFFFFF" d="M835.9,491.2c0.1,0.8,0,1.2-0.7,1.5C834.8,492,834.9,491.5,835.9,491.2z"/>
	<path fill="#FFFFFF" d="M649.7,496c-0.6-0.2-1.3,0.7-1.8-0.2C648.7,494.6,649.2,495.1,649.7,496L649.7,496z"/>
	<path fill="#FFFFFF" d="M657.2,302.2c-0.7,2.1-1.7,4.1-1.6,6.4c0,2-1.3,3.4-2.7,4.8c-3.2,3.1-6.5,6.1-9.1,9.7
		c-1.3,1.8-3.2,2.9-5.5,3.6c-10.5,3.3-21.4,4.3-32.3,3.4c-4.9-0.4-9.8-0.4-14.7-0.6c-4.8-0.2-9.2-1.6-13.6-2.9
		c-2.7-5.6-5.3-11.1-8.9-16c-0.9-1.3-0.1-2.3-0.4-3.6c-1.6,1.5-1.6,1.5-1.7,3.8c2.3,0.2,2.5,2.3,3.3,3.8c0.9,1.7,1.7,3.6,2.6,5.4
		c0.9,1.8,1.8,3.5,2.8,5.4c-7.2-2.4-12.9-7.1-18.9-11.3c-6.4-4.4-11.5-10.3-17-16c4-6,8.5-12.1,12.4-18.7c4.6-7.8,10.6-14.2,16.3-21
		c0.4-0.4,0.8-0.8,1.5-1.1c-1.8,4.1-1.6,8.1,0.1,12.4c-1.7,0.7-1.3,2.2-1.2,3.7c0.3,5.5,3.2,9.7,6.6,13.7c1.8,2.1,2.1,3.9,1,6.3
		c-1.4,3-2.5,6.2-1.1,9.7c0.2-3.1,1.9-5.3,3.7-7.5c3.5-4.3,3.3-6.9-0.7-11c-5.3-5.4-5.7-6.1-6.8-12.9c2.1,2.9,4.4,4.8,6.8,6.7
		c1.3,1,2.6,1.2,4.3,0.7c8.2-2.9,13.3-9.1,15.4-17c0.9-3.5,2.2-6.7,3.9-9.7c6-11.2,11.5-22.5,15.7-34.5c0.1-0.4,0.2-0.9,1-1.2
		c2.3,4.3,3.8,9.1,7.2,12.8c-2.2-5.3-3.9-10.8-6.8-16.1c4-12.4,5.5-25.2,5.6-38.3c0-3.1-0.3-5.9-1.9-8.8c-1.5-2.6-0.7-6-1.6-8.9
		c1.3-0.1,1.7,0.9,2.3,1.5c4.7,4.9,8.7,10.4,12.8,15.8c0.5,0.6,0.9,1.4,1.2,2.1c4.6,11.8,10.4,23,16,34.4c2.4,4.8,4.6,9.7,6.9,14.5
		c0.9,1.9,1.5,3.9,1.5,6.3c-2.3,1-4.6,2-7,2.9c-3.9,1.4-7.6,3.1-11.2,5c-1.5,0.8-3,1.8-4.8,2c-0.8,0.1-1.5,0.5-2.1,1.2
		c-4.4,5.1-10,9.3-14.2,14.5c-4.1,5.1-9.5,9.6-10.6,16.8c9.6-12.4,19.1-24.9,32.2-33.7c0.8,0.3,0.9,0.7,1,1.2
		c-0.4,0.3,0.2-0.1-0.2,0.2c-0.1,0,0,0,0.1-0.2c0.9-0.6,0.8-1.8,2.4-2.1c8.1-1.5,15.3-5.7,23.4-7.4c1.6-0.3,3.1-1,4.9-0.2
		c2-3,5-3.2,8.1-3.5c4.6-0.4,8.9-2.1,13.6-2.3c4.8-0.3,8.8-3.7,12.7-6.4c4.6-3.1,9.6-5.3,14.9-7c2.3-0.7,4.6-1.3,6.8-2.7
		c1.7-1.2,4.1-0.5,6.2-0.3c2.8,0.2,5.5,0.6,8,0.9c1.1-1.1-0.4-1.6-0.2-2c7-4.4,14.8-3.2,22.2-5c-4.9-2.4-10,0-15.4-0.9
		c-0.3-0.4,0.8-1.5,0-2.6c-2.5,0.4-2.4,2.7-2.9,4.3c-0.9,0.6-1.8,0.9-2.8,0.9c-1.2-1.3-2.5-2.6-4-4.1c-0.7,2.4,0.9,3.4,1.6,4.8
		c-0.6,0.6-1.3,1.2-1.9,1.8c-4-1-7.8-0.7-12.1-0.7c3.7-9.7,9.1-17.3,18.6-21.5c3.9-1.8,8.1-3,12-1c5.4,2.8,11.2,2.5,16.9,3.2
		c0.7,0.1,1.4,0.2,2,0.6c5.5,3.4,10.9,7,15.6,11.3c1.7,1.6,2,4,2.2,6.2c0.5,5,0.5,10-0.8,15c-1.1,4.4-1.9,8.9-2.8,13.4
		c-0.8,3.7-3.3,6.3-6.2,8.1c-5.7,3.5-11.7,6.4-18.8,5.5c-1.3-0.2-2.6-0.1-3.8-0.6c-3.6-1.5-6.9-0.9-10,1.1c-1-0.4,0-1.4-1-1.9
		c-2.4,0.3-4.7,1.7-6.6,3.1c-2.4,1.8-5,3.1-7.6,4.1c-3.1,1.1-6.6,1.8-9.9,1.8c-5.3,0-10.6-0.2-15.7-1.4c-4.1-0.9-8.1-2.3-12.1-3.2
		c-7.3-1.8-14.5-2.6-21.9-1.2c-0.6,0.1-1.1,0-1.7,0c-0.1,0-0.2-0.1-0.5-0.4c2.1-3,0.8-7.7,3.8-9.7c3.1-2,4.4-5.2,6.9-7.6
		c-3.4,0-3.8,3.5-6.1,5c-2.4,0.1-4.4,2.2-4.6,5.5c-0.3,5.5-3.6,8.3-8.3,10c-1.3,0.5-2.9,0.9-4.1,0.3c-3.3-1.6-6.4-0.5-9.6,0.2
		c-0.4-2.6,2.2-2.2,2.9-3c-6.6,2.9-12.2,7.8-16.7,14c-1.8,2.4-3.5,3.3-6.7,3c2.8-8.5,5.4-16.7,14.1-21.1c-3.8,2.3-7.4,4.5-9,9.1
		c-0.9,2.5-3.8,3.8-5.8,5.7c-2.7,2.5-5,5.5-7.7,8.1c-2.4,2.3-5.1,3.1-8.6,2.4c5.7-8.3,12.7-15.3,18.2-21.7
		c-5.4,5.6-11.2,12.9-17.6,19.6c-0.9,0.9-1.4,2.1-0.6,3.5c-0.3,1.5-2.1,1.8-2.5,2.7c0.9-0.9,2.3-2,3.4-3.3c1.1-0.3,2.3-0.7,3.1,0.8
		c0.2,1.7-1.6,2.1-2.1,3.2c4.4-5.9,10.4-10.4,15.6-15.8c2.3,7.8-4.2,12.1-6.8,17.6c1.3,1.7,2.6,1.6,3.9,1c4-1.6,7.3-4.1,9.6-7.9
		c2.2-3.6,4.8-6.2,9.9-5.7c4.9,0.4,10.1,0.1,13.3-2.8c-6.3,4.1-13.9,3.4-21.7,1.7c-0.3-0.2-0.4-0.5-0.5-0.9
		c2.3-4.7,5.8-8.2,10.5-10.5c0.7-0.3,1.3-0.4,1.9,0.2c0.2,1.8,1.6,1.6,2.7,1.3c3.8-1,7.5,0.3,11.1,0.9c3.3,0.5,6,5.3,5.5,8.8
		c-0.4,3-1.7,5.5-3.6,7.9c-4.8,6-4.8,6-5.7,12.6c-3.8-4.2-8.7-4.6-13.9-4.4c-0.2,0-0.5,0.1-0.7,0.2c-5.8,1.2-6.4,0.7-7-5.4
		c-2.4,1.2-2,3.3-1.6,5c0.5,2.4,2.4,3.6,4.7,3.4c3.2-0.2,6.3,0,9.4,0.8c1,0.3,2,0.3,2.8,1.2c-1.2,2.5-3.9,4-4.5,7.5
		c2.3-1.4,3.4-3.5,6.3-3.9C659.7,293.3,661,298.5,657.2,302.2c-0.8-1.1,0.6-2.5-0.9-3.8c-11.5,3.1-19.5,10.5-25.1,20.9
		c6.3-12.2,18.3-20.1,25.4-20C657.6,300.1,656.3,301.4,657.2,302.2z"/>
	<path fill="#FFFFFF" d="M590.3,187.3c-2.6,0.4-3,2.1-2.1,4.1c1.1,2.3,1.1,4.5,0.8,6.9c-0.5,4-0.6,8-1.5,11.9
		c-1.7,8.1-3.5,16.2-5.9,24.1c-2.2,7.4-7,13.6-12.3,19c-8.1,8.4-15.3,17.4-21.7,27.1c-8,12.2-16.1,24.4-24.1,36.7
		c-2.2,3.3-5.2,5.9-7.2,9.3c-3.7,0.3-7.2,1.2-11.1,0.3c2.8-4.4,6.1-8.4,7.2-13.6c-3,4.3-6.1,8.6-9.4,13.3c-6.3-3.3-13.3-4.8-19-10
		c7.3-7.8,12.1-17,18.1-25.3c3.9-5.3,7.5-10.8,9.9-16.9c1.3-3.2,2.4-6.6,4.4-9.4c1.7-2.3,1.8-5.3,2.4-7.9c1.8-7.7,4-15.3,6.6-22.8
		c3-8.5,4.7-17.4,7-26.1c0.5-1.9,1.1-3.8,1.7-5.7c0.9-2.5,2.1-5,2.2-7.7c0.3-7.1,2.8-13.5,5.4-19.9c0.9-2.3,1.6-4.7,1.5-7.2
		c-0.3-5.8,1.8-10.8,5.4-15.2c2.8-3.4,3.6-7.6,5.3-11.4c0.4-1-0.7-1-0.8-1.7c5-12.7,20.2-15.8,29.9-11.8c-1.1,2-3,3-4.8,4.9
		c2.6,1.1,4.1-0.3,5.5-1.4c3.6-2.9,5.3-2.9,8.7,0.3c2.7,2.4,4.2,6.1,7.7,7.6c6.5,2.8,10.2,8.6,15.5,12.8c1.9,1.5,2.8,3.4,3.1,5.7
		c0.5,3.8,0.9,7.6,1,11.5c0.1,5.2,0.9,10.4,0.2,15.6c-0.7,4.7-1.1,9.5-2.4,14.5c-2-2-3.3-3.5-3.9-6.3c-1.3-6.2-5.4-10.8-10.6-14.7
		c-0.5,1-0.1,1.3,0.2,1.6c4.5,5.1,7.5,11.2,10.4,17.3c0.8,1.6,1.8,3,3.9,4.2c-7.8,23.8-16.9,47.1-28,69.5c-0.2,0.7,0.7,0.3,1.1,0.9
		c-1.9,2.2-4,3.9-6.8,4.8c-1.1-2.1-2-3.9-1-6.3c0.6-1.6,0.1-3.5-0.5-5.2c-1.5-4.5-2.9-9.1-4.1-13.8c-0.4-1.6-0.4-2.8,0.6-4.2
		c3.7-5.5,6.2-11.5,7.8-17.9c0.9-3.4,2-6.9,3.4-10.3c0.1,2.1,0.3,4.2,0.4,6.4c1.1-5.5,1-11.1,0.9-16.7c0-1.8-0.1-3.4,1-5
		c1.3-2.1,1.2-4.5,1.1-6.8c-0.2-2.5-0.3-5.1-0.5-8.2c1.6,1.6,0.4,3.4,2.1,5.1c0.5-3.4,0.9-6.4-0.2-9.1c-1.1-2.8-2.6-5.3-2.7-8.9
		c-1.5,1.3-0.8,2.4-1.2,3.3c-0.4,0.5-0.9-0.8-1.5,0.2C590.2,181,590.2,183.9,590.3,187.3z"/>
	<path fill="#FFFFFF" d="M454,136.8c0.3-2.1,1.4-3.6,3-5c3.3-2.8,6.1-6.1,8.1-10c0.9-1.8,2.2-2.6,4.1-2.8c6-0.8,11.6,0.8,17.2,2.7
		c3.5,1.2,7.1,2.2,10.8,2.7c4.8,0.7,9.4,2.8,13.5,5.6c0.8,0.5,1.3,1.2,1.6,2.2c0.8,2.9,2,5.8,2.3,8.8c0.3,2.7-0.2,5.5-0.4,8.3
		c-0.7,13.5-3.1,26.7-6.5,39.8c-1.1,4.4-2.9,8.4-5.6,12c-2.3,3.1-4.5,6.3-6.9,9.7c-6.1-13.8-9.9-27.7-9.1-43.1
		c2.9,4.1,5.7,8.1,8.5,12.2c0.3-2.4-1-4.8-3.6-9.7c-1.8-3.2-5.4-4.4-6.9-7.9c-0.3,6-0.2,11.9-1.2,17.7c-1.2,7-3.5,13.5-6.8,19.8
		c-3.8,7.2-7.4,14.6-12.3,21.2c-2.7,3.6-6,6.3-9.9,8.2c-6.6,3.3-12,8-16.8,13.6c-4.5,5.4-8.6,11.2-13.5,16.2
		c-5.3,5.4-9.6,11.5-13.3,18.1c-0.8,1.4-2.6,2.1-2.4,4.1c-7.6,0.3-14.5-1.8-21.7-3.5c1.5-2.3,2.8-4.4,4.2-6.5
		c-3.2,0.9-4.8,3.8-7.5,5.4c-2.1-0.8-4.1-1.6-6.3-2.4c1.5-3.9,4.3-6.8,7-9.7c5.2-5.4,9.7-11.4,13.9-17.7c2.4-3.7,5.3-7.1,7.8-10.8
		c6.1-8.8,9.6-19,14.2-28.5c2.5-5.1,5-10.1,7.3-15.3c3.8-8.5,7.1-17.4,12.8-24.9c2.3-3.1,5.1-6.1,4.2-10.5c-0.1-0.4,0.5-1,0.9-1.5
		c3.6-4.7,6-10,7.1-15.9C451.9,138.2,452.2,136.8,454,136.8c0.5,1.9-0.9,3.8-0.4,5.8C453,140.6,454.6,138.8,454,136.8z"/>
	<path fill="#FFFFFF" d="M737.5,265c1.1-0.4,1.3-1.9,2.6-2.4c8,5.8,17.6,8.1,26.9,11.6c-0.3,0.9-1.3,1.3-2.1,1.9
		c-5.9,3.9-12.1,7.3-17.3,12.2c-2.7,2.5-6.1,4.3-9.4,6.1c-4.2,2.3-8.5,4.5-12.2,7.6c-1.7,1.4-3.7,1.9-5.8,2.4
		c-14.1,3.7-28.3,6.3-42.8,7.5c-4.4,0.4-8.7,1.1-12.9,3.3c-0.3-2.9,1.8-2.5,3-2.8c10-2.5,20-4.9,30-7.4c1.8-0.4,3.7-0.7,5.2-1.9
		c-12.4,2.4-24.9,4.8-37.4,8.4c0.1-2.7,1.1-4.8,1.5-7.3c3.7-1.8,7.5-3.6,11.2-5.5c-3.8,0.2-7,2.4-10.6,3.7
		c1.1-6.3,1.7-12.3,2.2-18.4c0.3-3.6,2.1-6.6,4.3-9.4c3.4-4.3,4.1-6.1,4.9-11.6c1.1,2.1,2,3.7,3,5.7c-2.1,5.3-4.3,10.7-2,16.6
		c2-0.9,1.9-2.3,2-3.7c0.2-3.9,0.3-7.7,1.5-11.5c0.2-0.8,0.4-1.7-0.1-2.4c-2.1-3.3-2.9-7.2-4.4-10.6c-2.6-0.6-2.6-0.6-6.4-4.5
		c11.3-1.9,22-1.9,32.3,2.4c0,1.2,0,2.8,0,4.7c1.9-0.9,1.6-3,3.2-4c6.2,1.9,12.9,1.8,19.5,2.9c0.1,2.4-0.4,4.7,0.5,7
		c1.8-2.5,1.8-2.5,2-6.3c1.8-1.2,4.2-1.1,5.8-3.3c1.5,2.1,2.8,3.6,1.8,6C737.1,262.9,737.5,264.1,737.5,265
		c-0.1,0.2-0.2,0.2-0.2,0.2C737.1,265.2,737.2,265.2,737.5,265z"/>
	<path fill="#FFFFFF" d="M444.7,350.1c3.1,4.7,7.6,7.5,12.4,9.3c1.3-0.5,1.1-1.3,1.4-2c1.3,0.7,2.4,1.3,3.6,1.9
		c1.1,0.6,2.2,0.7,3.1-0.5c-0.7-3.5-7.1-8.5-16.3-12.5c0.7-1.1,1.8-1.7,2.8-2.5c5.9,4.5,13,7,18.2,12.5c2.6-1.6,1.3-3.3,0.3-4.5
		c-3-3.8-6.9-6.7-11.3-8.7c-1.3-0.6-2.6-1-3.9-1.5c0.1-1,0.9-1.3,1.6-1.8c6.1,3.4,11.7,7.3,16,13.2c2.6-3.1,2.4-3.5-3.1-10.6
		c3.6,1.7,6.1,3.9,8.8,6c2.8-1.3,1.6-3.1,0.5-4.5c-2.8-3.5-6.4-5.8-10.5-7.4c-1.6-0.6-3.3-1.2-4.9-1.8c0.4-1,1.1-1.4,2.1-2
		c2.9,1.9,5.9,3.8,9,5.7c2.9,1.8,5.1,4.7,7.9,6.7c2.3-2,1.2-3.5,0.1-4.9c-2.7-3.5-6.2-6-9.9-8.3c-0.9-0.6-1.9-1.1-2.8-1.7
		c0.6-1.3,1.2-0.8,1.8-0.4c4.8,3,9.5,6,13.5,10.1c1,1,2,2.4,3.8,1.8c0.5-4.9-6.4-11.1-17.4-15.6c1-1.8,1.9-3.7,3.1-5.4
		c1.2-1.7,1.7-3.6,2.6-5.7c5.7,3.2,10.4,6.9,12.8,12.9c0.3,0.6,0.2,1.4,0.8,1.9c4.1,4.1,7.5,9.1,13.2,11.4c1.2,0.5,2.4,1,3.6,1.3
		c4.1,0.8,5.3,0.2,7.6-3.3c2.5-3.9,2.7-8.4,4.1-12.9c1.2,2.7,1.6,5.1,0.3,7.7c-0.7,1.3-0.5,2.7-0.1,4.1c1.3,5.5,2.1,11,3.2,16.5
		c0.7,3.5,1,6.4-0.6,9.6c-1.7,3.4-4.5,5.2-7.6,7c-4.6,2.7-9.4,4.6-14.9,4.5c-3.1-0.1-6.4,0.9-9,2.6c-3.9,2.4-8.3,3.2-12.6,4
		c-1.7,0.4-3.5,0.4-4.7,2c-0.7,0.8-1.9,0.9-2.9,1.1c-14.2,2.6-28,1-41.4-4.2c-9.8-3.9-10.2-4.5-16.6-13.7c0.5-1.3,1-2.6,1.6-3.9
		c4.1-2.3,8.9-3.5,13.3-4c5.9-0.7,10.4-3.6,15.2-6.4c1.6,0.9,2.4,3.1,4.6,3.2c1.1-2.3,1-2.4-3.1-4.7
		C443.5,350.5,444,350.2,444.7,350.1L444.7,350.1z"/>
	<path fill="#FFFFFF" d="M415.4,288c-1.3-6.4,0.2-11.8,3.6-16.9c7.3-10.9,16.2-20.7,24.6-30.7c2.6-3.1,5.7-5.3,9.3-7.2
		c10-5.2,16.7-13.7,22-23.4c3-5.5,5.2-11.3,7-17.2c0.3-0.9,0.3-1.8,1.3-2.4c1.5,0.8,1.1,2,0.9,3.3c-1.2,5.8-2.7,11.6-3.3,17.6
		c-0.5,5.6-0.9,11.2-0.9,16.8c0,2.1,0.8,4.1,3,5.1c0.4,0.2,0.8,0.5,1.1,0.8c6.7,8.9,16.2,14.9,23.1,23.7c-4.6,2.1-9.8,2.4-14.4,4.5
		c-0.3,0.1-0.7,0.1-1,0.1c-6.8-1.1-12.6,1.9-18.6,4.2c-5.3,2.1-10.7,4-16.4,5.2c-5.8,1.3-11.4,3.4-17,5.5c-3.5,1.3-6.9,2.8-10.6,3.8
		c-1.5,0.4-3.1,1.3-4.2,2.4C422.4,285.8,419,286.6,415.4,288z"/>
	<path fill="#FFFFFF" d="M363.1,287.5c1.2,1.2,1.5,3.3,4,3.1c1.6-3.1-1.5-5.7-1-8.9c2.5-1.5,3.4-4.2,3.8-6.9
		c0.4-2.6,2.8-2.8,4.6-4.8c-1.3,4.1-2,7.5-2.2,10.9c-0.2,2.1,0.5,3.5,2.5,4.5c2.4,1.2,4.5,2.8,6.5,4.8c6,5.9,12.5,6.1,19.1,0.8
		c3.5-2.9,7-5.7,11.1-8.4c0.2,1.9,0.5,3.6,0.7,5.2c0.5,4.1,1.2,8.1,3.2,11.8c1.1,2,1.4,4.2,0.7,6.4c-1.1,3.4,0.9,6.4,2,9.2
		c-2.4,4.9-6.2,6.8-11.2,6.5c-8.5-0.5-17.2,1.4-25.6-0.8c-7.1-1.9-13.3-0.2-19.7,2.1c-1.5,0.5-2.8,0.8-4.4,0.5
		c-2.3-0.3-4.7-0.4-7-0.2c-8.3,0.6-16.6-0.1-24.7-1.8c-1-0.2-2.1-0.3-3.1-0.5c-4.8-0.7-7.6-3.2-8.7-8c-0.2-0.9-0.5-1.8-0.7-2.7
		c-0.9-3.4-0.5-3.9,3.1-4.6c4.2-0.8,8.1-2.3,11.7-4.7c2.3-1.5,4.6-2.1,7-0.1c0.9,0.2,1-0.8,1.6-1.1c1.1-0.3,0.5,1.3,1.2,1.2
		c1.6,0.3,1.2-1.5,2-1.8c1.6-0.2,1,2,2.6,1.8c1.1-1.1,1-3.7,3.8-3.6c0.8,0.4,0.9,2.2,2.6,2.2c1.3-0.5,0.1-2.6,2-3.1
		c1.2,0.2,1.6,2.4,3.5,2c1.5-1.2,0-2.5,0.1-4.1c1.5,0.6,2,2.7,4.1,2.4c2.2-1.1,0.1-3.1,0.3-5.1c2.2,0.9,2.4,4.2,5.4,3.2
		C365.9,292.5,362.7,290.1,363.1,287.5L363.1,287.5z"/>
	<path fill="#FFFFFF" d="M517,169.3c2,0.4,3.1,2.2,5.3,2.2c-1.4-1.9-3.3-2.8-5.1-3.9c0.6-11.2,2.5-22.4-2-33.3
		c10.2,7.1,18.5,15.9,27.5,24.3c-2.6,5.8-0.7,12.3-4.3,17.7c-1.2-0.4-0.5-1.8-1.2-2.4c-0.1,0.2-0.3,0.3-0.3,0.4
		c0.4,2.9-0.1,5.7-0.8,8.6c-1.8,7.1-3.1,14.4-5.2,21.5c-1.6,5.5-3.2,11-4.4,16.6c-1.8,8.3-6.1,15.7-7.7,24c-0.6,3.2-1.2,6.4-2.5,9.5
		c-0.6,1.4-1.2,2.7-2,4.5c-10-9.2-19.2-18.7-28.4-28.3c5.7-8.6,10.3-17.9,16.6-26c7.7-10,11.4-21.6,13.9-33.7
		C516.7,170.5,516.8,170.1,517,169.3z"/>
	<path fill="#FFFFFF" d="M744.2,183.9c-11.4,7.4-14.7,11.8-17.5,23.4c-6,4.3-13.1,5.6-18.9,9.7c-2.4-1.1-4.8-3.1-7.7-0.7
		c0.6,1.7,2.3,2.1,3.4,3.3c-1.7,1.4-3.3,2.7-5.4,3.2c-6,1.3-12,3.2-18.2,3.5c-1.6,0.1-3,0.5-4.3,1.4c-3.2,2.4-7,3-11.1,3.8
		c-2.4-12.6-9.8-23-14.7-34.4c5.5-1.9,11.1-1.4,16.7-1.7c0.8-0.1,1.7,0.1,2.4,0.4c5.9,2.3,12,3.1,18.2,3.4c4.9,0.2,9.6-1.8,14-4
		c9.5-4.8,19.2-8.6,29.9-9.6C735.4,185,739.8,184.4,744.2,183.9z"/>
	<path fill="#FFFFFF" d="M790.1,242.7c-3.7,10.1-8.6,19.2-16.6,26.5c-1.8,1.7-4.1,1.6-6.3,1.5c-2.6-0.1-5.1-0.9-7.4-2
		c-5.4-2.6-10.7-5.1-15.9-8.5c0.6-3.5,2.9-5.4,6-6.5c2.5-0.9,5-1.8,7.4-3.1c2.3-1.3,4.6-1.4,7.4-0.6c8.8,2.3,16.9,0.6,23.7-5.9
		C788.8,243.6,789.1,242.9,790.1,242.7z"/>
	<path fill="#FFFFFF" d="M404.2,284.9c-3.2,2.1-6.2,4.7-9.6,6.2c-4.5,1.9-8.8-0.2-12.3-3c-2.3-1.9-4.5-4-7.6-5.6
		c1.9-1.7,0.7-3.9,1.7-6.1c8.7,4.7,17.8,7.4,27.6,7.7C404,284.4,404.1,284.7,404.2,284.9z"/>
	<path fill="#FFFFFF" d="M515.3,329.6c-0.5,3-1.4,5.5-2.6,7.9c-0.9,1.9-2.2,2.8-4.5,2.2c-4-1-7.8-2.1-10.6-5.5
		c-2.6-3.2-6.3-5.6-6.8-10.5c3.8,1.8,7.7,3.7,11.6,5.4C506.6,330.9,511,330,515.3,329.6z"/>
	<path fill="#FFFFFF" d="M483.1,228.7c2-9.7-1-19.9,3.1-30c1.9,5.7,3.5,11,7,15.4C489.6,219,487.8,224.8,483.1,228.7z"/>
	<path fill="#FFFFFF" d="M574.6,252.6c1.1,7.9,3,15.3,4.7,23c-1.9-1.4-3.9-2.9-5.9-4.4c-0.9-0.7-1.2-1.7-1.4-2.7
		c-0.5-4.2-0.2-8.4,0.4-12.6C572.5,254.5,573,253.3,574.6,252.6z"/>
	<path fill="#FFFFFF" d="M651.5,322.6c-1.5-2.1-2.3,1.6-3.9,0.3c1.9-1.6,3.7-3.3,5.6-4.9c1-0.2,1.8,0.4,2.9,0.8
		c-1.6,1.4-3,2.6-4.4,3.9L651.5,322.6z"/>
	<path fill="#FFFFFF" d="M444.8,350.2c-0.3-1.1,0.4-1.7,1.5-2.4c0.9,1,1.8,2.1,2.8,3.3C447.3,351.6,446.3,349.6,444.8,350.2
		L444.8,350.2z"/>
	<path fill="#FFFFFF" d="M743.3,255.4c-0.5,1.5-1.5,1.6-2.4,2c-0.9-0.4-1.4-1-1.9-2.1C740.5,255.3,741.9,256.2,743.3,255.4z"/>
	<path fill="#FFFFFF" d="M744.7,160.3c-1.5-1-2.1-1.8-0.8-3C745.3,158,744.8,159,744.7,160.3z"/>
	<path fill="#FFFFFF" d="M749.3,154.3c-0.4,0.6-0.7,0.9-1,1.3c-1.2-0.3-1.1-1.4-1.5-2.1C747.8,153.2,748.4,153.7,749.3,154.3z"/>
	<path fill="#FFFFFF" d="M660.4,303.8c0.4,1.5,0.3,2.5-1,3.3C659.1,305.9,659.2,304.8,660.4,303.8z"/>
	<path fill="#FFFFFF" d="M692.6,109.5c1.2,0.3,1.7,1.3,2.5,2.7C693.3,111.7,693.2,110.4,692.6,109.5z"/>
	<path fill="#FFFFFF" d="M663.3,295.2c0.6,1.2,0.3,2.2-0.5,3.8C662.3,297.2,663,296.2,663.3,295.2z"/>
	<path fill="#FFFFFF" d="M663.8,291.8c-0.7-1.2-0.3-2.3-0.1-4C664.5,289.4,664.3,290.6,663.8,291.8z"/>
	<path fill="#FFFFFF" d="M695.4,116.5c1.3,0.5,1.8,0.7,1.8,1.6C696.5,118.2,696.2,117.8,695.4,116.5z"/>
	<path fill="#FFFFFF" d="M748.5,140.6c-1,0.1-1.4-0.5-1.8-1.2C748.1,138.7,748.2,139.8,748.5,140.6z"/>
	<path fill="#FFFFFF" d="M741,164.4c-0.4,0.4-0.9,0.9-1.4,0.3c-0.3-0.3-0.2-0.8,0.1-1.2C740.2,163.8,740.6,164.2,741,164.4
		L741,164.4z"/>
	<path fill="#FFFFFF" d="M730.9,129.8c-0.5,0.2-0.7,0-0.9-0.3c0-0.1,0.1-0.4,0.2-0.4C730.6,129.1,730.9,129.2,730.9,129.8z"/>
	<path fill="#FFFFFF" d="M724.8,119.9c-0.9-0.6-1.2-0.7-1.5-0.9C723.8,118.6,724.1,118.8,724.8,119.9z"/>
	<path fill="#FFFFFF" d="M363.1,287.4c-1.2-0.2-1.1-0.8-1.2-2C363.3,286.1,363,286.9,363.1,287.4L363.1,287.4z"/>
	<path fill="#FFFFFF" d="M729.5,121.6c-1,0.5-1.1-0.3-1.7-0.6C728.8,120.5,729.1,121.1,729.5,121.6z"/>
	<path fill="#FFFFFF" d="M732.8,142.3c-0.3-0.7-0.1-1.1,0.3-1.3c0.2-0.1,0.5-0.1,0.5,0.2C733.8,141.7,733.4,142,732.8,142.3z"/>
	<path d="M579.3,437.8c0.9-0.9,0.1-2.2,1.5-2.7c1-0.2,1.7,0.5,1.6,1.6c-0.3,2.5-1.7,4.4-4,5.4c-1.9,0.8-4,1.4-6.1,2.1
		c-1.3,1.6-1.7,3.7-2.2,5.4c-1.2,1.1-2.5,0.2-3.9,1.2c-0.9,0.9-0.9,3.5-3.9,3.5c1.3-2.8,2.8-4.8,5.5-5.5
		C570.3,441.4,570.3,441.4,579.3,437.8z"/>
	<path d="M595.8,496.1c2.6-0.8,3.1,1.2,3.5,2.8c1.2,4.5,1,9-0.5,13.6c-1.7-0.6-2.4-2-2.6-3.7c-0.4-3.8-0.6-7.7-0.8-11.5
		C595.4,497,595.7,496.6,595.8,496.1z"/>
	<path d="M572.4,521.8c1.3,3.5-1.7,11.5-6.3,17.5C564.9,536.7,568.9,525.2,572.4,521.8z"/>
	<path d="M554.3,569.6c2.3-6.6,3.6-13.6,7.2-19.7C559.8,556.8,558.4,563.7,554.3,569.6z"/>
	<path d="M555.8,485.5c-2.2,4.6-5.7,8.1-9.3,11.5C549.6,493.1,550.3,487.4,555.8,485.5z"/>
	<path d="M570.1,467.1c-5.1,3.9-7.5,10.2-12.6,14.5c-0.7-1.7,0.3-2.2,0.8-2.8c2.3-3.2,5.4-5.7,7.5-9.1
		C566.7,468.2,568.3,467.2,570.1,467.1z"/>
	<path d="M543.4,540.9c0.5-5.7,3.9-10.3,5.7-15.6C547.4,530.5,546.6,536.1,543.4,540.9L543.4,540.9z"/>
	<path d="M514.8,608.4c1.2-3.8,1.4-8.1,5.1-10.8C518,601.1,517.9,605.4,514.8,608.4z"/>
	<path d="M565.7,540c1.3,3.2,0.7,4.6-3,6.7C563.1,544.2,563.9,542.1,565.7,540z"/>
	<path d="M578.9,483.6c2.6,0.7,5.4,0.8,7.7,2.8C583.9,487.3,582.6,486.9,578.9,483.6z"/>
	<path d="M531,572.7c0.9-3.8,2-7.4,3.9-10.8C534.4,565.8,532.9,569.3,531,572.7z"/>
	<path d="M577.3,490.1c-1.7,1.9-3.1,3.6-4.6,5.3C573.2,491.9,574.4,490.4,577.3,490.1z"/>
	<path d="M540.5,503.5c1.2-1.8,2.1-3.9,4.7-4.5C544.5,501.3,542.4,502.3,540.5,503.5z"/>
	<path d="M547.6,469.7c-1.2,1.8-1.6,4.3-4.2,5.7C543.5,471.9,545.6,470.8,547.6,469.7z"/>
	<path d="M537.4,557.1c-0.1-2.3,0.4-4.2,2.3-6.2C539.9,553.7,538.6,555.4,537.4,557.1z"/>
	<path d="M552.3,461.7c0.2,1.8,0.2,3.6-2.3,5C550.4,464.3,550.9,462.8,552.3,461.7z"/>
	<path d="M601.8,525.1c-1.2-2-1.8-3.6-1.3-5.8C602.8,520.9,601.6,522.9,601.8,525.1z"/>
	<path d="M543.3,540.8c0.5,2.5-1.3,4-2.1,6C540.5,544.2,542.3,542.7,543.3,540.8L543.3,540.8z"/>
	<path d="M564.1,517.8c0.3-1.8,0.8-3.4,2.4-5C566.6,515.1,565.6,516.6,564.1,517.8z"/>
	<path d="M532.1,517.7c0.3-1.5,0.9-2.8,2.7-3.9C534.4,515.9,533.2,516.8,532.1,517.7z"/>
	<path d="M538.8,507.5c0.1,1.5-0.9,2.2-2.5,3C536.8,508.9,537.7,508.1,538.8,507.5z"/>
	<path d="M590.9,538.6c-0.9-1.3-0.4-2.5,0-4.6C591.7,536.1,591.2,537.3,590.9,538.6z"/>
	<path d="M576,482.3c-1.2,0.9-1.9,0.4-2.6-0.2c0-0.3,0-0.6,0.1-0.6C574.5,481,575.3,481.2,576,482.3z"/>
	<path d="M574.5,462.1c-0.4,1.3-1.3,2.1-2.6,2.9C571.7,462.9,573.2,462.6,574.5,462.1z"/>
	<path d="M569.1,505.1c-0.6-1.3-0.2-2.3,1-3.3C570.7,503.3,569.2,504.1,569.1,505.1z"/>
	<path d="M596.2,474.2c1.2,0.4,2.5,0.8,2.9,2.6C597.3,476.6,597.2,474.9,596.2,474.2L596.2,474.2z"/>
	<path d="M596.3,474.1c-1.3,0.1-2.1-0.5-2.7-1.9C595.2,472,595.8,473,596.3,474.1L596.3,474.1z"/>
	<path d="M574.2,514.8c0.5,0.9,0.4,1.5-0.5,2C572.5,515.8,573.7,515.4,574.2,514.8z"/>
	<path d="M576.9,509c-0.2,0.1-0.4,0.2-0.6,0.3c0-0.1-0.1-0.3-0.1-0.3c0.2-0.1,0.4-0.2,0.6-0.3C576.8,508.8,576.8,508.9,576.9,509z"
		/>
	<path d="M839.6,504.3c0.8,0.7,1.6,1.5,0.8,2.7c-1.7,2.7-1.7,5.7-1.5,8.7c-2.1,0.9-3.9,1.6-6,0.7c0.6-2,4.6-0.6,3.5-4
		c-2.4-0.3-3.9,1.6-5.8,2.4c0.8-3.1,3.3-4.2,5.9-5.1c0.4-1,1.1-1.8,0.9-3c-1.2-0.5-2.3-0.1-3.7,0c-0.4,3.7-3.6,5.5-5.3,8.2
		c-1.6-0.3-2.5-1.4-3.5-2.3c-1-0.9-1.3-2.1-0.6-3.2c0.8-1.2,2.1-1.3,3.1-0.6c2.5,1.7,3.5,0.6,4.2-1.6c-0.2-1-1.6-0.8-1.7-2.1
		C833.1,504.2,836.4,504.6,839.6,504.3L839.6,504.3z"/>
	<path d="M819.2,475.6c-2.6-2.6-5.5-4.9-7.7-7.8c-2.4-3.1-6.2-3-9.9-4.9c4.3-2.6,7.7-0.3,11.6-0.6c-0.6,2.4,0.6,3.6,1.9,4.8
		c1.7,1.8,3.1,3.8,4.3,5.9C819.6,473.8,820.3,474.5,819.2,475.6z"/>
	<path d="M809.7,474.9c-3.6-0.4-5.5-3.3-8.4-4.1c0.5-2.1,3-1.6,2.8-3.6C808.6,469.2,810.3,471.4,809.7,474.9z"/>
	<path d="M704.6,509c2.4,2.5,5.8,3.5,8.4,5.5c1.4,1.1,3.4,2.2,1.5,5.2C710.5,516.5,707.7,512.6,704.6,509z"/>
	<path d="M790.3,524c3.1-1.9,6.1-4.1,10-4.2c0.1,0.3,0.2,0.6,0.4,0.9c-3.3,1.4-6.6,2.8-9.9,4.2C790.6,524.6,790.5,524.3,790.3,524z"
		/>
	<path d="M721.4,533.5c2.5,1.8,3.9,5.8,2.9,8.8C722.4,539.3,722.1,536.3,721.4,533.5z"/>
	<path d="M687.8,528.3c2.4-1.2,4.9-1.5,7.5-0.9C692.9,528.5,690.5,529.5,687.8,528.3z"/>
	<path d="M761,504.3c1.2,2.7,2.2,5.5,1.1,8.7C760.5,511.1,760.3,508.8,761,504.3L761,504.3z"/>
	<path d="M786.1,512.8c0.9,1.2,2.6,1.6,3.4,2.9c-3-0.1-4.2-0.7-6.1-3.2C784.5,511.4,785.3,512.9,786.1,512.8L786.1,512.8z"/>
	<path d="M695.1,525.6c-2.6-0.9-5.1-1.8-8-2.8C690.8,522.3,692.7,522.8,695.1,525.6z"/>
	<path d="M807.2,525.1c1.8-2.5,3.9-4.5,7-5.4C812.1,521.8,809.8,523.7,807.2,525.1z"/>
	<path d="M682.8,538.9c2.4,0.3,4.8,0.4,6.6,2.6C687.3,540.2,684,542.3,682.8,538.9L682.8,538.9z"/>
	<path d="M727.9,547.7c-2.2-1.3-3.1-2.5-3.5-4.6C727.2,543.3,727.8,544.8,727.9,547.7z"/>
	<path d="M786.2,512.9c0.2-0.6-0.1-1.5,1-1.4c1.4,0.2,2.9,0.5,4.3,1.7C789.4,513.7,787.8,512.6,786.2,512.9L786.2,512.9z"/>
	<path d="M714.4,552.9c1.6,1.3,2.4,2.4,1.5,4.3C714.4,556.1,713.7,555.1,714.4,552.9z"/>
	<path d="M811.2,519.5c-1.8,1.4-3.3,0.6-5,0.7C808.1,518.9,808.1,518.9,811.2,519.5z"/>
	<path d="M719,528c2.2,1,3,2.3,3,4.6C720.2,531.3,719.4,530,719,528z"/>
	<path d="M698.1,528.5c2.1,0.6,3.5,2,4.5,4.9c-2.1-1.8-3.6-3-5-4.3C697.8,528.9,697.9,528.7,698.1,528.5z"/>
	<path d="M800.2,532.3c1-1.2,2-2.4,3-3.6C803.2,530.6,802.3,531.9,800.2,532.3z"/>
	<path d="M810,501.1c-1.4,1.3-2.3,1-3.4-0.1C807.7,499.8,808.7,500.2,810,501.1z"/>
	<path d="M815.2,501.9c-1.5,1.1-2.4,0.7-3.5-0.2C812.9,500.5,813.9,500.7,815.2,501.9z"/>
	<path d="M705.3,507.5c-1-1-0.9-1.6,0-2.5C706.2,505.8,706.3,506.5,705.3,507.5z"/>
	<path d="M797.1,515.3c-1,0.4-1.4,0-1.9-0.4c0-0.8,0.6-0.6,0.9-0.5C796.6,514.4,797,514.6,797.1,515.3z"/>
	<path d="M766.5,516.5c0.7,0,1.2,0.4,1.6,1c-0.8,0.6-1.2-0.2-1.6-0.3C766.1,516.8,766.2,516.6,766.5,516.5z"/>
	<path d="M699.9,538.3c0-1,0.4-1,0.8-1.1C701,538,700.5,538.1,699.9,538.3z"/>
	<path d="M435.2,515.6c-0.6-0.1-1.1-0.6-1.2-1.2c-1.3-7.9-1.9-15.7,4.8-22.7C437.6,500.1,434.6,507.6,435.2,515.6L435.2,515.6z"/>
	<path d="M462.1,437.3c1.9-4.3,5.1-5.9,8.1-7.8c1.1-0.7,1.6,0.3,2.3,1.3C470.2,434.4,467.1,436.6,462.1,437.3z"/>
	<path d="M399.9,581.6c0.3-2.4,0.8-4.7,0.1-7.1c-0.3-1.1,0.8-1.8,1.7-2.4C404.4,577.3,403.8,581.2,399.9,581.6z"/>
	<path d="M437.8,522c1.6,2-0.8,4.7,1.4,6.1c2.1,1.3,2,3.4,2.9,5.2C435.1,527,434.5,525.3,437.8,522z"/>
	<path d="M453.6,438.2c0.8,0.5,1.1,1.2,1,2.1c-0.4,2.5-0.8,5-1.6,7.5C451.5,444.4,451.6,441.2,453.6,438.2L453.6,438.2z"/>
	<path d="M408.7,558.6c-2.1,3.6-2.6,7.8-5.4,10.9C404.5,565.7,406,561.8,408.7,558.6z"/>
	<path d="M484.6,447.1c-1.2-1.8-2.9-3.1-3.4-5.2C484.2,442.4,485.3,444,484.6,447.1z"/>
	<path d="M435.1,515.6c0.7,0,1.4,0.2,1.5,1c0.2,1.9-0.3,3.7-0.9,5.5C434.2,520,435,517.8,435.1,515.6L435.1,515.6z"/>
	<path d="M443,485.1c1.7-1.9,3.4-3.8,5.1-5.6c0.2,0.2,0.4,0.4,0.6,0.6c-1.3,2.3-3.5,3.6-5.1,5.6C443.4,485.5,443.2,485.3,443,485.1z
		"/>
	<path d="M480.4,430.6c1.3,2,1.4,4.2,0.9,6.5C480,435.2,480.1,432.9,480.4,430.6z"/>
	<path d="M482.7,434.4c-0.5-1.8-0.9-3.5,0.5-5.8C484.1,431.1,483.6,432.8,482.7,434.4z"/>
	<path d="M499.6,488.1c1.9,0.7,3.1,2,3.4,4.6C500.9,491.5,500.5,489.6,499.6,488.1z"/>
	<path d="M463.1,438.2c0.8,2.1-0.2,3.3-1.1,4.6C461.8,440.5,461.8,440.5,463.1,438.2z"/>
	<path d="M417.2,545.3c0.2-1.8,0.9-3.2,2.5-4.1C419.3,542.8,418.4,544.2,417.2,545.3z"/>
	<path d="M443,468.5c1.8,0.8,1.4,2.2,1.4,3.7C442.7,470.8,442.7,470.8,443,468.5z"/>
	<path d="M446.1,461.7c-0.1-1.5,0.4-2.6,2.3-3.3C448.2,460.2,447.1,461,446.1,461.7z"/>
	<path d="M450.8,477.5c0.5-1.3,1.3-1.8,2.7-1.9C453,477.1,452,477.6,450.8,477.5z"/>
	<path d="M411.2,553.7c0.1-1.3,0.8-2.2,2.1-3C413.2,552.3,412.1,553,411.2,553.7z"/>
	<path d="M497.4,484.5c-1.2,0.2-1.1-0.6-1.8-1.1C497.3,482.7,497,484,497.4,484.5z"/>
	<path d="M483.6,457.8c0.9,0.5,1,1.2,0.4,2C483.3,459.3,483.1,458.7,483.6,457.8z"/>
	<path d="M391.4,569.1c0.1-1,0.4-1.4,1.2-1.4C393,568.6,392.3,568.7,391.4,569.1z"/>
	<path d="M477.3,427.2c-0.5,1.1-1,1-1.6,0.4C476.1,426.4,476.6,427,477.3,427.2z"/>
	<path d="M609.6,579.8c5-9,11.6-16.9,16.8-25.7c1.1,0.1,1,1,0.6,1.7c-0.7,1.4-1.4,2.7-2.3,3.9c-4.4,6.2-8.8,12.4-13.2,18.5
		C611.1,578.9,610.9,579.8,609.6,579.8z"/>
	<path d="M638.6,518.6c-0.9,7.6-1.9,15.1-4.8,22.2c-0.3-0.1-0.5-0.1-0.8-0.2C634.9,533.3,636.8,526,638.6,518.6L638.6,518.6z"/>
	<path d="M630.5,510.6c-0.4,6.4-0.3,12.9-1.9,19.2C628.8,523.4,629.1,516.9,630.5,510.6z"/>
	<path d="M643.4,577.5c3-0.1,4-2.7,6.3-4.4c-0.6,2.9-1.9,4.8-4.1,6.1C644.7,579.7,643.9,579.2,643.4,577.5z"/>
	<path d="M629.3,571.3c0-1.3,0.7-2.2,1.6-3C630.7,569.4,630.6,570.7,629.3,571.3L629.3,571.3z"/>
	<path d="M650.8,571.4c-0.2-0.8,0.4-1.2,0.9-2.2C651.8,570.4,651.5,570.9,650.8,571.4z"/>
	<path d="M638.6,518.7c0-0.9,0-1.7,0-2.8C639.2,517,638.8,517.8,638.6,518.7L638.6,518.7z"/>
	<path d="M625.5,533c1,0.3,1.1,0.8,0.9,1.6C625.3,534.5,625.1,533.9,625.5,533z"/>
	<path d="M505.2,662.8c-2.1,0.7-3.5,1.3-4.9,1.6c-2.8,0.6-5.2-1-5.7-3.7s1.2-5.1,3.9-5.7c2.4-0.5,4.9,1.1,5.6,3.6
		C504.5,659.9,503.8,661.4,505.2,662.8z"/>
	<path d="M489.2,657c2.5,0.1,4.6,2.2,4.6,4.8c0,2.7-2.1,4.9-4.9,4.9c-2.7,0-4.9-2.2-4.8-5C484.2,659.1,486.5,656.9,489.2,657z"/>
	<path d="M475.2,660.6c2.5-0.6,4.9-2.2,7.1-0.2c1.5,1.3,0.9,3,0.1,4.5c0,1.2,1.5,1.5,1.6,2.7c-2.2,1.7-3-1.9-5-1.2
		c-1.1,0.5,0.2,1.9-0.5,2.6C476.8,669.9,475.9,667.5,475.2,660.6z"/>
	<path d="M516.1,549.3c-2.1-7.7-4.2-15.5-6.3-23.2c3.6,7.3,6,15,7.1,23C516.6,549.2,516.4,549.2,516.1,549.3z"/>
	<path d="M526.1,454.7c2.8,7.7,3.3,15.9,5,23.9C528.4,470.8,527.7,462.7,526.1,454.7z"/>
	<path d="M529.5,480.4c1.4,0.1,2.2,1.1,3,2.1C531.1,482.4,530.3,481.4,529.5,480.4z"/>
	<path d="M522.6,525.6c0.7,1,1.2,1.8,0.7,3C522.1,527.9,522.5,526.8,522.6,525.6z"/>
	<path d="M735,485.8c3.4-0.5,5.4,0.9,7.5,2.1C740,488.2,737.5,488.7,735,485.8z"/>
	<path d="M633.7,617.9c-1.8,3-3.4,5.6-5.1,8.5c-0.8-2.4,0.2-5.9,2-8.1C631.2,617.6,631.2,617.6,633.7,617.9z"/>
	<path d="M565,585.8c0.5-0.9-0.4-2.4,1.4-2.9c0.7,1.4-0.3,2.3-0.9,3.3C565.3,586.1,565.2,585.9,565,585.8z"/>
	<path d="M655.8,252.9c-3.6,1.3-6.8,3.2-8.5,6.8c-0.8,1.7-2.8,2.1-3.4,3.8c-0.9,2.5-2.8,4.3-4.8,5.9c-1.8,1.5-3.3,3.2-4.4,5.2
		c4.4-2.6,6.6-7.1,9.2-11.2c2-0.7,4-0.5,5.8,0.2c4.5,1.5,8.8,0.2,13.1-0.8c1.8-0.4,2.9-1.8,4.1-3.2c0.9-1,1.4-2.4,3-2.8
		c-0.1,3.5-2.4,6.9-6,8.1c-3.4,1.2-7.1,2-10.7,1.6c-4.5-0.6-7.4,1.6-9.5,5c-2.3,3.8-5.4,6.4-9.3,8.2c-2.9,1.3-4.3,1.1-7.2-1.2
		c1.6-3.8,4.1-6.9,7.3-9.9c-0.3-2.5,0.7-5,2.1-8.1c-2.5,1.7-3.6,3.5-5,5c-4.1,4.3-8,8.7-12.5,12.6c-1,0.8-2.1,1.8-3.1-0.2
		c2.3-1.1,4.2-2.7,6.1-4.7c-1-0.6-1.9-0.5-2.8-0.6c-0.5,0.4-1,0.6-1.6,0.1c-0.9-0.4-1.4-0.9-0.8-1.9c0.5-0.8,1-1.6,1.6-2.3
		c6.3-7.1,12.5-14.2,18.8-21.3c1.2-1.4,2.4-3,4.3-3.6c0.3,0.3,0.5,0.5,0.8,0.8c-7.6,8.6-15.3,17.3-23.1,26.1c4.7,0.4,7.3-2.5,10-5.2
		c3.3-3.4,6.3-7.2,10-10.3c0.4-0.4,0.7-0.9,0.9-1.4c0.6-1.1,1.1-2.4,1.7-3.4c0.4-0.6,1-1,1.6-1.4c3.4-2.1,6.7-4.4,9.4-7.2
		c1.2,1.1,0.9,1.8,0.4,2.3c-1,0.9-2.1,1.8-3.2,2.7c-2.2,1.8-5.3,2.6-6.6,5.1c-2.3,4.8-5.1,9.4-6.8,14.8c2.7-0.8,4.3-2.5,5.7-4.4
		c3.2-4.5,7-8.1,12-10.5c2.1-1,4.2-2.2,4.7-4.5c1.5-0.3,1,1,1.7,1.2c1.2-0.4,1.3-1.9,2.5-2.3c0.8,2.4-0.8,4.9-3.6,5.1
		C657.8,251.2,656.6,251.6,655.8,252.9L655.8,252.9z"/>
	<path d="M657.2,302.2c-0.8-0.5-0.7-1.4-0.9-2c-12.6,4.4-21.4,12.8-27.2,25.2c-1.3-1.9-0.7-3.1-0.2-4.1
		c5.1-11.7,12.9-20.5,25.5-24.3c1.2-0.4,2.8-0.3,3.2-2.7C659.6,297.7,657.5,299.9,657.2,302.2L657.2,302.2z"/>
	<path d="M744.3,229.5c-4.5,2.7-8.6,2.3-12.4-0.9c-2.8-0.5-5.5,1.3-8.4,0.3c3.2-2.4,7.3-2.7,10.2-0.8c1.8,1.2,3.8,1,5.7,1
		C741,229.2,742.5,228.4,744.3,229.5z"/>
	<path d="M639,217.2c-0.8,7.5-2.1,15-4.6,22.2c-0.3,0.7-0.4,1.6-1.8,2.1c0.7-2.3,1.3-4.3,1.9-6.3C636.1,229.2,637.6,223.2,639,217.2
		L639,217.2z"/>
	<path d="M774.8,214.9c0.9-0.1,1.6,0.3,2.3,0.8c2.5,1.9,5,3.7,8.3,4.4c-2.9,2.9-7.5,0.7-10.8-4.9L774.8,214.9z"/>
	<path d="M737.9,216.7c3.9-1.5,10.4,1.9,11.3,5.8C745.7,220.4,741.9,218.8,737.9,216.7z"/>
	<path d="M613.5,299.2c1.8-5.7,3.6-11.4,5.5-17.4C620.1,284.1,617.3,293.8,613.5,299.2z"/>
	<path d="M774.6,215.2c-2,1-4.4,0.2-6.5,1.2c-1.8,0.9-3.7,1.8-5.7,2.8c1.6-3.8,8-6.7,11.6-5.4c0.4,0.1,0.5,0.7,0.8,1.1L774.6,215.2z
		"/>
	<path d="M631,209.3c-0.5,6.4-0.2,12.9-1.9,19.1C629.3,222.1,629.5,215.7,631,209.3z"/>
	<path d="M780.3,227.3c-1.7,3.2-4.1,5.6-6.6,6.3c1.4-1.8,3.5-4.5,5.6-7.2C779.7,226.7,780,227,780.3,227.3z"/>
	<path d="M640.2,288.4c-1.1,3.3-2.2,6.6-4.4,9.6C634.6,295.6,636.3,291.8,640.2,288.4z"/>
	<path d="M566,284.8c-4.6,3.5-4.7,8.7-5.4,13.8c-0.8-5.6-0.6-10.8,4.9-14.2c0.2,0,0.4-0.3,0.6-0.1C566.2,284.4,566,284.6,566,284.8z
		"/>
	<path d="M734.4,250.4c-3.7,1.2-7.2-0.4-9-4.1C728.1,248.3,731.4,249,734.4,250.4z"/>
	<path d="M560.3,305.6c1.7,2.5,2.6,5.2,2.2,8.3C560.8,311.5,560.5,308.6,560.3,305.6z"/>
	<path d="M776.4,206.7c-2.1,0.1-4.2,0.4-6.1-1.4C772.9,204.2,773.5,204.3,776.4,206.7z"/>
	<path d="M617.5,272.8c0.5,0,1.1-0.1,1.6-0.1c-1.1,2.8-3.5,3.9-6.5,5.4C613.5,275,616.3,274.6,617.5,272.8z"/>
	<path d="M713,241.6c-2.5,0.4-4.7-0.1-7.1-1.9C708.7,240,710.9,240.6,713,241.6z"/>
	<path d="M750.5,212.7c-1.6-0.4-3.1-0.8-4.1-2.8C748.8,209.6,749.7,211.1,750.5,212.7z"/>
	<path d="M716.2,228.7c1.8-0.5,2.9-0.6,4.4,0.1C719.2,230.1,718.1,229.9,716.2,228.7z"/>
	<path d="M710.3,229.5c1.4-0.7,2.3-0.7,3.6,0.3C712.5,230.6,711.6,230.3,710.3,229.5z"/>
	<path d="M754.2,244.5c0.8-1.9,1.9-2.1,3.7-1.1C756.6,244.1,755.8,244.8,754.2,244.5z"/>
	<path d="M767.6,236.8c-0.8,1.3-1.9,1.6-3.3,1.5C765.4,236.8,765.4,236.8,767.6,236.8z"/>
	<path d="M782.2,209.4c-1.6,0-2.2-0.7-3-1.5C780.9,207.8,780.9,207.8,782.2,209.4z"/>
	<path d="M575.5,306.2c-1,0.7-1.6,1.1-2.4,1.1c-0.1-0.2-0.3-0.4-0.3-0.6C573.2,305.2,574,305,575.5,306.2z"/>
	<path d="M721.9,245.4c-2.1-0.1-3.1-0.6-4-2.1C719.6,243.5,720.6,244,721.9,245.4z"/>
	<path d="M732.5,215.5c0.9-0.7,1.6-0.6,2.5,0.1C734,216.4,733.3,216.6,732.5,215.5z"/>
	<path d="M761.7,239.1c-0.9,1.9-1.9,2.3-3.3,2.7C758.7,240,760,239.9,761.7,239.1z"/>
	<path d="M707.3,229.9c-0.8,0.9-1.4,1.1-2.1,1c-0.4-0.7,0-0.9,0.5-1C706.1,229.8,706.6,229.9,707.3,229.9z"/>
	<path d="M752.6,195.1c-0.5-0.8-0.3-1.2,0-1.6c0.3-0.4,0.6-0.9,1.5-0.7C753.8,193.7,753.8,194.7,752.6,195.1z"/>
	<path d="M565.5,284.4c0.6-0.9-0.5-2.4,1.4-2.9c0.7,1.4-0.3,2.3-0.9,3.3C565.8,284.7,565.6,284.5,565.5,284.4z"/>
	<path d="M644.3,235.2c-0.3-1.1,0.3-1.7,0.7-2.4C645.3,233.6,645.3,234.4,644.3,235.2z"/>
	<path d="M644.5,241.6c0.1,1.3-0.5,1.9-2,2.1C642.5,242.1,643.7,242,644.5,241.6L644.5,241.6z"/>
	<path d="M752.9,197.8c0.1,0.7-0.1,1.2-1,1.1c-0.6-0.6-0.3-1.1,0.2-1.4C752.3,197.3,752.7,197.4,752.9,197.8z"/>
	<path d="M626.7,233.6c-0.6-0.7-1.3-1-0.7-1.9C627,231.8,627.2,232.4,626.7,233.6z"/>
	<path d="M753.4,215.5c-1.2,0.2-1.6-0.3-1.8-1C752.6,214.3,752.6,214.3,753.4,215.5z"/>
	<path d="M639.1,217.3c0-0.9,0-1.7,0-2.8C639.7,215.6,639.2,216.4,639.1,217.3L639.1,217.3z"/>
	<path d="M784.3,211.4c-0.9,0.1-1.2-0.3-1.1-1.2C784.2,210.2,784.5,210.6,784.3,211.4z"/>
	<path d="M730.6,215.1c-0.3-0.1-0.7-0.3-0.5-0.7c0.1-0.2,0.4-0.3,0.5-0.3c0.4,0,0.6,0.3,0.5,0.7C731.1,214.9,730.8,215,730.6,215.1z
		"/>
	<path d="M786.1,214.3c0.8-0.2,1.1,0,1.1,0.3c0,0.1-0.2,0.3-0.3,0.5C786.8,214.9,786.6,214.7,786.1,214.3z"/>
	<path d="M566.8,149.2c-1,1.3-1.1,3.6-4,3.7c1.1-2.8,2.6-4.8,5.6-5.6c0.7-6.8,5.1-9.9,11.6-10.9c0.7-0.8-0.2-2.1,1.1-2.7
		c0,0,0.3-0.1,0.4-0.1c1.4,0.3,1.6,1.3,1.2,2.4c-0.8,2.1-2.1,4-4.3,4.8c-1.9,0.7-3.8,1.2-5.6,1.9c-1.2,1.7-1.7,3.6-2.2,5.4
		C569.6,149.3,568.2,148.5,566.8,149.2z"/>
	<path d="M599,211.9c-3.9-5.8-1.9-11.7-3.2-17.1c3.2-0.8,3.6,1.1,4,2.8C600.9,202.1,600.8,206.6,599,211.9z"/>
	<path d="M565.5,238.5c1.4-6.8,3.4-12.6,6.9-18.3C574.4,223.6,570.3,234.5,565.5,238.5z"/>
	<path d="M554.7,268.3c2.6-6.5,3.3-13.8,7.3-19.7C560.1,255.3,558.9,262.4,554.7,268.3z"/>
	<path d="M556.3,184.1c-2.2,4.6-5.7,8.1-9.3,11.5C550.1,191.8,550.6,185.8,556.3,184.1z"/>
	<path d="M557.3,179c4.4-4.5,7.7-10.1,13.2-13.5c-4.8,4.1-7.5,10.3-12.2,14.4C557.9,179.7,557.6,179.3,557.3,179z"/>
	<path d="M543.8,239.5c0.5-5.7,3.9-10.3,5.7-15.6C547.8,229.2,547.1,234.8,543.8,239.5L543.8,239.5z"/>
	<path d="M520.4,296.3c-2,3.4-2,7.7-5.1,10.6C516.5,303.1,516.6,298.9,520.4,296.3z"/>
	<path d="M563.1,245.5c0.6-2.8,1.1-5,3.1-6.6C567.6,241.7,567,243,563.1,245.5z"/>
	<path d="M535.3,260.6c-0.5,3.8-1.9,7.3-3.8,10.6C532.2,267.5,533.6,264,535.3,260.6z"/>
	<path d="M586.8,185.1c-3.2,0.9-5.3-1.1-7.5-2.7C582,182.5,584.6,183.3,586.8,185.1z"/>
	<path d="M577.5,189c-1.4,1.7-3,3.1-4.3,5.6C573.6,190.6,574.8,189.1,577.5,189z"/>
	<path d="M546.3,197.1c-1.4,2.9-3.5,3.8-5.3,5C542.3,200.3,543,198,546.3,197.1z"/>
	<path d="M547.9,168.2c-1,2-1.5,4.3-3.9,5.8C543.6,170.4,546.4,169.7,547.9,168.2z"/>
	<path d="M539.9,250.1c0.2,2.2-0.5,4.1-2.2,6.3C537.3,253.5,538.5,251.8,539.9,250.1z"/>
	<path d="M552.8,159.7c0.3,2.3,0,3.9-2,5.4C550.6,162.8,551.4,161.4,552.8,159.7z"/>
	<path d="M602.2,223.7c-1.3-1.9-1.7-3.6-1.4-5.8C603.3,219.5,602.1,221.5,602.2,223.7z"/>
	<path d="M567.2,211.2c-0.4,2.4-1.1,4-2.7,5.7C564.6,214.6,565.4,213,567.2,211.2z"/>
	<path d="M543.8,239.4c0.5,2.4-1.1,4.1-2.3,6.6C541,242.9,542.7,241.3,543.8,239.4L543.8,239.4z"/>
	<path d="M532.6,216.4c0.1-1.6,1-2.7,2.3-3.4C534.8,214.5,533.7,215.4,532.6,216.4z"/>
	<path d="M573.6,180.4c1.3-0.9,2-0.5,2.7,0.1C576.3,181.7,575.9,181.6,573.6,180.4z"/>
	<path d="M591.4,233.4c0.7,1.3,0.3,2.6,0.1,4.5C590.3,235.8,591,234.6,591.4,233.4z"/>
	<path d="M539.2,206.1c0.1,1.6-0.8,2.3-2.4,2.8C537.2,207.4,538.2,206.7,539.2,206.1z"/>
	<path d="M572.4,163.3c0.2-1.6,1-2.5,3-2.8C574.6,162.1,573.5,162.7,572.4,163.3z"/>
	<path d="M570.7,200.4c0.1,1.6-0.6,2.4-1.4,3.9C568.9,202.5,569.2,201.4,570.7,200.4z"/>
	<path d="M596.7,172.8c1.2,0.4,2.4,0.9,2.9,2.6C597.8,175.2,597.6,173.5,596.7,172.8L596.7,172.8z"/>
	<path d="M596.7,172.7c-1.3,0.1-2.1-0.5-2.7-1.9C595.7,170.7,596.3,171.6,596.7,172.7L596.7,172.7z"/>
	<path d="M573.7,215.5c-0.1-1.1,0.3-1.6,1-2.2C575.1,214.3,575,215,573.7,215.5z"/>
	<path d="M576.6,207.8c0-0.4,0.3-0.6,0.7-0.4C577.2,207.8,577,208,576.6,207.8z"/>
	<path d="M435.6,214.2c-0.6-0.2-1.1-0.6-1.2-1.2c-1.3-7.9-1.9-15.7,4.8-22.7C438,198.7,435.1,206.3,435.6,214.2L435.6,214.2z"/>
	<path d="M462.7,135.6c1.7-4,5-5.6,8-7.5c1.1-0.7,1.6,0.3,2.1,1C470.9,133,467.6,135.1,462.7,135.6z"/>
	<path d="M400.2,280.5c0.5-2.7,0.9-4.9,0.2-7.2c-0.4-1.3,0.8-2,1.8-2.6C404.7,276.5,404.2,279.4,400.2,280.5z"/>
	<path d="M438.1,220.5c1.8,2-0.7,4.8,1.6,6.3c2,1.3,2.1,3.3,2.5,5.3c-1.5-1.7-3.1-3.3-4.6-5C435.7,225,435.8,223.5,438.1,220.5z"/>
	<path d="M454,136.8c0.8,0.5,1.1,1.2,1,2.1c-0.4,2.5-0.8,5-1.6,7.5C451.9,143.1,452,139.8,454,136.8L454,136.8z"/>
	<path d="M409.4,257.4c-1.7,3.7-3.4,7.3-5.1,11c-0.3-0.1-0.6-0.3-0.9-0.4c1.4-3.8,3.2-7.4,5.2-10.9
		C408.9,257.2,409.1,257.3,409.4,257.4z"/>
	<path d="M482,140.3c1.9,1.2,4.1,2.2,3.3,5.5C483.8,143.9,482.1,142.7,482,140.3z"/>
	<path d="M435.6,214.3c0.7,0,1.4,0.2,1.5,1c0.2,1.9-0.2,3.8-0.9,5.5C434.6,218.7,435.4,216.4,435.6,214.3L435.6,214.3z"/>
	<path d="M443.5,183.8c1.7-1.9,3.3-3.8,5-5.7c0.2,0.2,0.4,0.3,0.6,0.5c-1,2.5-3.5,3.7-5.1,5.7C443.9,184.1,443.7,184,443.5,183.8z"
		/>
	<path d="M481.8,136.7c-1.3-2.9-1.4-5.2-1.1-8.3C482.3,131.2,482.2,133.5,481.8,136.7z"/>
	<path d="M483.2,133.1c-0.6-1.8-0.8-3.6,0.4-5.9C484.6,129.8,484.1,131.5,483.2,133.1z"/>
	<path d="M502.6,191.1c-0.9-1.4-1.9-2.8-2.8-4.1c2.1,0.5,3.3,1.8,3.5,3.8C503.1,190.8,502.9,191,502.6,191.1z"/>
	<path d="M420,239.9c-0.3,1.6-1.2,3-2.5,4.1C417.7,242.2,418.5,240.9,420,239.9z"/>
	<path d="M461.8,141.6c0.4-1.8,0.3-3.2,1.3-4.6C463.9,139.2,463.9,139.2,461.8,141.6z"/>
	<path d="M444.6,171.2c-1.6-1.4-1.7-2.5-1.6-4.2C445.2,168,444.9,169.4,444.6,171.2z"/>
	<path d="M451.3,176.3c0.2-1.6,1.3-1.9,2.8-2.2C453.5,175.6,452.4,176,451.3,176.3z"/>
	<path d="M446,161c0.5-2.2,1-3.4,3-3.9C448.4,158.8,447.7,159.8,446,161z"/>
	<path d="M411.6,252.2c0.3-1.2,0.8-2.2,2.3-2.9C413.4,250.9,412.6,251.7,411.6,252.2z"/>
	<path d="M496.3,181.7c1.3,0,1.4,0.7,1.6,1.6C496.8,183.4,496.5,182.8,496.3,181.7z"/>
	<path d="M484.1,156.4c0.9,0.5,1,1.2,0.4,2C483.8,157.9,483.5,157.3,484.1,156.4z"/>
	<path d="M393.2,266.5c-0.1,0.6-0.4,1-1.4,1.1C392,266.7,392.1,266.1,393.2,266.5z"/>
	<path d="M477.7,125.9c-0.6,1.1-1.1,1-1.6,0.3C476.4,125.2,477,125.5,477.7,125.9z"/>
	<path d="M713.9,271.4c-1.3-3-0.4-6.6,2-8C715.2,266.1,714.7,268.5,713.9,271.4z"/>
	<path d="M737.5,265c-0.5,1.5-1.1,3-2.4,4.2C734.1,265.9,734.8,264.7,737.5,265L737.5,265z"/>
	<path d="M716.4,262.5c-0.8-1.5-1.7-3,0.3-4.5C717.9,259.8,717,261.2,716.4,262.5z"/>
	<path d="M732.8,270.4c1,2.1,0.4,3-1.1,3.9C730.5,272.5,731.1,271.5,732.8,270.4z"/>
	<path d="M670.3,292.4c0.5-1.3,1.4-1.5,2.6-1.9C672.3,291.8,671.5,292.2,670.3,292.4z"/>
	<path d="M505.9,358c-1.8,0.3-3.1,1.3-4.5,1.5c-2.7,0.5-5-0.9-5.6-3.4c-0.7-2.8,1-5.4,3.9-6c2.4-0.5,4.9,1.1,5.6,3.6
		C505.6,355,505,356.5,505.9,358z"/>
	<path d="M490.1,352.1c2.5-0.1,4.7,2,4.8,4.5c0.2,2.8-1.8,5-4.6,5.1c-2.8,0.2-5-1.9-5.1-4.6C485.2,354.4,487.4,352.2,490.1,352.1z"
		/>
	<path d="M477.9,364c-0.6-2.8-1.2-5.4-1.8-8.2c2.5-0.9,4.8-2.2,7.1-0.6c1.8,1.2,1.2,3.1,0.3,4.7c0,1.2,1.5,1.5,1.5,2.7
		c-2.2,1.7-2.9-2-4.9-1.3C478.8,361.6,481.2,364.9,477.9,364z"/>
	<path d="M516.6,248c-2.1-7.7-4.2-15.4-6.4-23.6C513.1,228.4,517.4,243.8,516.6,248z"/>
	<path d="M531.6,177.2c-2.9-8.3-3.5-17.2-5.6-25.8C529.4,159.6,529.7,168.6,531.6,177.2z"/>
	<path d="M530,178.9c1.3,0.3,2.4,1,3.3,2.5C531.6,181,530.8,180,530,178.9z"/>
	<path d="M523.1,224.6c0.7,0.8,1.1,1.6,0.8,2.7C522.5,226.5,523.1,225.4,523.1,224.6z"/>
	<path d="M657.4,208c4-0.4,8-1,11.9-1.2c1.4-0.1,3.1,0.5,2.8,3c-5,0.5-9.8-0.8-14.7-0.5C657.4,208.8,657.4,208.4,657.4,208z"/>
	<path d="M678.9,220.2c-5.8-1.4-11-2.8-16.3-3.8C667.2,215.4,675.9,217.4,678.9,220.2z"/>
	<path d="M696,214c-2.6,1.1-2.8,1-6-1.1C692.4,211.2,694.1,212.3,696,214z"/>
	<path d="M686.9,211.9c-1.2,0.4-2,0.4-2.5-0.6C685.3,210.4,685.9,211.1,686.9,211.9z"/>
	<path d="M680.1,209.2c-1-0.4-1-1.1-0.5-1.9c0.8-0.3,1.1,0.3,1.2,0.8C681,208.7,680.7,209.1,680.1,209.2z"/>
	<path fill="#FFFFFF" d="M501.9,659.2c-0.5,1.1-1.5,0.3-1.9,1c-0.8,0.7,0.4,1.4,0.2,2.1c-1.5,0.6-2.4,0-3.1-1.1
		c-0.8-1.4-0.7-2.9,0.6-3.7C499.7,656.3,501.1,657,501.9,659.2z"/>
	<path fill="#FFFFFF" d="M491.6,662.2c-0.2,1.6-1,2.7-2.7,2.5c-1.9-0.2-2.5-1.5-2.4-3.2c0.1-1.6,1-2.4,2.5-2.3
		C490.8,659.2,491.5,660.5,491.6,662.2z"/>
	<path fill="#FFFFFF" d="M477.6,662c1.1-0.6,2.1-0.9,3.2-0.3c0.7,1.5-0.2,2.1-1.5,2.3C477.8,664.3,477.5,663.5,477.6,662z"/>
	<path fill="#FFFFFF" d="M643.8,263.5c-0.1,1.2,0.2,2.1,1.7,2.3c-1.1,1.1-1.9,2.1-3.3,2.2c-1.7,5.8-7,10.2-12.1,10
		c-0.5-0.5-0.4-1.2,0-1.6c2.9-2.9,5-6.7,8.7-8.7C640.8,266.6,642,264.7,643.8,263.5L643.8,263.5z"/>
	<path fill="#FFFFFF" d="M503.2,354.9c-2.1-0.1-2.9,0.6-1.6,2.5c-2.3,0.6-3.3-0.5-3.7-2.3c-0.3-1.2,0.2-2.4,1.5-2.9
		C501.3,351.7,502.6,352.4,503.2,354.9z"/>
	<path fill="#FFFFFF" d="M490.3,359.8c-2-0.2-2.8-1.3-2.8-3.1c0-1.5,0.7-2.5,2.3-2.5c1.9-0.1,2.8,1.1,2.8,2.8
		C492.8,358.7,491.9,359.6,490.3,359.8z"/>
	<path fill="#FFFFFF" d="M479.4,359.2c-0.7-0.7-0.8-1.3-0.5-2.1c0.9-0.6,1.9-0.8,3.1-0.3C482.6,359.3,480.8,359.1,479.4,359.2z"/>
</g>
</svg>
